<?xml version="1.0" encoding="UTF-8"?>
<svg version="1.1" xmlns="http://www.w3.org/2000/svg" width="1024" height="1024">
<path d="M0 0 C337.92 0 675.84 0 1024 0 C1024 337.92 1024 675.84 1024 1024 C686.08 1024 348.16 1024 0 1024 C0 686.08 0 348.16 0 0 Z " fill="#277043" transform="translate(0,0)"/>
<path d="M0 0 C337.92 0 675.84 0 1024 0 C1024 337.92 1024 675.84 1024 1024 C686.08 1024 348.16 1024 0 1024 C0 686.08 0 348.16 0 0 Z M185 164 C184.19691406 164.69480469 183.39382812 165.38960937 182.56640625 166.10546875 C180.0043412 168.36376322 177.49545422 170.6683695 175 173 C174.12472656 173.80953125 173.24945313 174.6190625 172.34765625 175.453125 C139.80813902 206.63877423 125.9643134 251.76881014 124.9053092 295.95050359 C124.85385252 300.47236757 124.85684771 304.99417129 124.85955811 309.51626587 C124.85696914 311.2612837 124.85395451 313.00630094 124.8505547 314.75131738 C124.84254355 319.51549113 124.84069844 324.27964976 124.83995724 329.04382944 C124.8380963 334.19481714 124.83054372 339.34579718 124.82382202 344.4967804 C124.8102791 355.74746359 124.80422002 366.9981432 124.79981136 378.24883318 C124.79704154 385.2856952 124.79280281 392.32255586 124.78830719 399.35941696 C124.77611877 418.87565588 124.76581929 438.39189372 124.7624321 457.90813637 C124.76221253 459.1556224 124.76199297 460.40310843 124.76176675 461.68839707 C124.76154847 462.93872727 124.76133019 464.18905746 124.7611053 465.47727644 C124.76066185 468.01056711 124.76021528 470.54385777 124.75976562 473.07714844 C124.7595442 474.33372581 124.75932277 475.59030319 124.75909463 476.88495867 C124.75515153 497.21930056 124.73771052 517.5536065 124.7144061 537.88793452 C124.69062527 558.80839745 124.67822716 579.7288424 124.67706418 600.64931905 C124.67615109 612.37768919 124.67049168 624.10601251 124.65224457 635.83436966 C124.63675228 645.8266955 124.63177638 655.81896006 124.63998267 665.81129564 C124.64385741 670.89819644 124.64311754 675.98497416 124.62892532 681.07185936 C124.5614998 706.71152126 124.50090556 732.44134605 130.75 757.5 C131.00894043 758.56710205 131.26788086 759.6342041 131.53466797 760.73364258 C137.22420488 783.40166904 146.77336483 806.04886656 162 824 C162.94610183 825.15690703 163.89136607 826.31449937 164.8359375 827.47265625 C194.755234 863.71402596 238.09248332 882.77085018 284.28561676 887.32384455 C305.82653325 889.10788521 327.32273562 889.28699234 348.92364514 889.24679029 C353.74088278 889.24008769 358.55811187 889.24518836 363.37535095 889.24867249 C372.76391866 889.25366314 382.15245059 889.24813905 391.54101384 889.23882218 C402.50702387 889.22833847 413.47302656 889.22851096 424.43904065 889.22899476 C444.01739199 889.22949317 463.59572687 889.2203926 483.17407227 889.20581055 C502.11580708 889.19171024 521.05752744 889.18464072 539.99926758 889.18530273 C541.16750852 889.18534269 542.33574946 889.18538265 543.53939164 889.18542381 C544.70573842 889.18546417 545.87208521 889.18550452 547.07377583 889.1855461 C568.73183618 889.18623789 590.38989048 889.18033708 612.04794886 889.17139288 C619.6697943 889.16839228 627.29163861 889.16731523 634.91348457 889.16686058 C644.21014648 889.16617473 653.50679815 889.16165848 662.80345572 889.15252777 C667.53539782 889.14794804 672.26732693 889.14484998 676.99927139 889.14612198 C739.7247278 889.15917394 800.26835254 885.68834064 848 840 C848.7940625 839.26910156 849.588125 838.53820312 850.40625 837.78515625 C883.06789289 806.72558762 897.77406109 758.66166158 899.18583345 714.55828702 C899.27749893 709.94826887 899.2673454 705.33888786 899.25396729 700.72819519 C899.25627843 698.96221089 899.2594593 697.19622755 899.26342177 695.43024617 C899.27168887 690.63155701 899.26768174 685.83294847 899.26144934 681.0342592 C899.25689226 675.83780105 899.2639247 670.641356 899.26940918 665.44490051 C899.27827087 655.2855278 899.27639543 645.12618475 899.2705839 634.9668109 C899.26605393 626.70321136 899.26546027 618.4396201 899.26763153 610.17601967 C899.267938 608.99666706 899.26824446 607.81731445 899.26856022 606.60222388 C899.26919972 604.20581584 899.26984814 601.80940781 899.2705054 599.41299979 C899.27619945 576.97636932 899.26966573 554.53975524 899.25890467 532.10312746 C899.2499735 512.88767247 899.25151942 493.67224166 899.26074219 474.45678711 C899.27146723 452.10115309 899.27564654 429.7455334 899.26951766 407.38989717 C899.26888062 405.00174066 899.26825187 402.61358414 899.26763153 400.22542763 C899.26732298 399.05065317 899.26701443 397.87587871 899.26669653 396.66550502 C899.26497602 388.4216703 899.26787082 380.17784475 899.27259064 371.93401146 C899.2782245 361.87320298 899.27663082 351.81242568 899.26602915 341.75162073 C899.26080543 336.62697731 899.25865872 331.5023857 899.26532745 326.37774277 C899.52092638 291.89381643 899.52092638 291.89381643 894.75 257.8125 C894.53239014 256.81114014 894.31478027 255.80978027 894.09057617 254.77807617 C888.989452 232.10259304 879.90341809 210.71038976 866 192 C865.30648437 191.06414062 864.61296875 190.12828125 863.8984375 189.1640625 C837.47165436 155.41300238 800.4126107 136.32165999 758.875 128.25 C757.38722046 127.95186401 757.38722046 127.95186401 755.86938477 127.64770508 C731.21080935 123.15645233 705.953015 123.70500831 680.99514127 123.73855066 C675.93305526 123.74313574 670.87098222 123.7360619 665.80889893 123.73059082 C655.92901936 123.72175924 646.0491704 123.72359065 636.16928969 123.7294161 C628.13140305 123.73395685 620.09352492 123.73453514 612.05563736 123.73236847 C610.33116399 123.73190877 610.33116399 123.73190877 608.57185278 123.73143978 C606.23544422 123.73080025 603.89903565 123.73015182 601.56262709 123.7294946 C579.72294023 123.72380971 557.88327024 123.73032044 536.04358615 123.74109533 C517.35277947 123.75003155 498.66199764 123.74847462 479.97119141 123.73925781 C458.19961359 123.72852665 436.42805051 123.72435636 414.65647042 123.73048234 C412.32989065 123.73111936 410.00331088 123.7317481 407.67673111 123.73236847 C405.96020413 123.7328313 405.96020413 123.7328313 404.20899983 123.73330347 C396.19090303 123.73502171 388.17281565 123.73213427 380.15472031 123.72740936 C370.36904072 123.72176888 360.58339317 123.72338309 350.7977172 123.73397085 C345.81643991 123.73918491 340.83521581 123.74135819 335.85393906 123.73467255 C282.87531338 123.66968792 226.82318939 127.19264284 185 164 Z " fill="#FAF9F7" transform="translate(0,0)"/>
<path d="M0 0 C3.51124503 0.44698365 4.35400316 1.56407601 6.546875 4.32421875 C7.36667168 6.98096169 7.96794743 9.4212158 8.46630859 12.13671875 C8.62306564 12.92138016 8.77982269 13.70604156 8.94132996 14.51448059 C9.45718262 17.11510374 9.95113221 19.71939809 10.4453125 22.32421875 C10.80495229 24.15742308 11.16603155 25.99034555 11.5284729 27.82299805 C12.4832345 32.66930284 13.41988304 37.51893182 14.35235596 42.36956787 C15.28269667 47.19615276 16.22721568 52.01995046 17.171875 56.84375 C17.35567876 57.78243801 17.53948252 58.72112602 17.72885609 59.68825912 C18.09726217 61.56964671 18.46572249 63.45102368 18.83423805 65.33238983 C19.38235994 68.13440525 19.92835938 70.93682802 20.4740448 73.73931885 C22.91953768 86.27570048 25.52085232 98.76746889 28.23730469 111.24804688 C30.08468175 119.75507509 31.76486736 128.29454742 33.44509888 136.83584595 C36.1953298 150.80115469 39.01568564 164.74330618 42.109375 178.63671875 C44.65669121 190.09102829 47.06669342 201.56731544 49.38058472 213.07089233 C49.73696328 214.84249787 50.09461654 216.61384755 50.4536438 218.38491821 C50.95513424 220.86254903 51.45109561 223.34122177 51.9453125 225.8203125 C52.09289505 226.54711212 52.2404776 227.27391174 52.39253235 228.0227356 C55.18183509 242.15671149 55.18183509 242.15671149 53.21484375 245.7734375 C49.2420584 248.08265534 45.37766389 248.52976768 40.859375 249.13671875 C39.7751123 249.29648193 38.69084961 249.45624512 37.57373047 249.62084961 C34.31228754 250.0970509 31.04915249 250.55680486 27.78460693 251.01098633 C23.73114049 251.57838097 19.68024127 252.16371066 15.62890625 252.74609375 C9.74791322 253.58994005 3.86651301 254.43078034 -2.01586914 255.26489258 C-21.7119254 258.05942764 -41.39579958 260.93483563 -61.078125 263.82421875 C-61.8885601 263.94315365 -62.69899521 264.06208855 -63.53398895 264.18462753 C-85.52014198 267.41126701 -107.50463949 270.64892546 -129.47900391 273.95507812 C-140.23834655 275.57022968 -151.00612127 277.12271648 -161.77734375 278.65625 C-180.40444851 281.30833523 -199.02214452 284.023161 -217.63819504 286.75164413 C-220.31868526 287.14449523 -222.99919922 287.53718404 -225.67971802 287.92984009 C-237.93786567 289.7256156 -250.19562887 291.52400181 -262.453125 293.32421875 C-263.51969078 293.48083229 -263.51969078 293.48083229 -264.60780334 293.64060974 C-294.88104841 298.08602183 -325.13965138 302.62120648 -355.38256836 307.26831055 C-361.02534067 308.13486676 -366.66903943 308.99506422 -372.31378174 309.84869385 C-374.38611918 310.16259646 -376.4581885 310.47827492 -378.52996826 310.7958374 C-381.38750977 311.23255656 -384.24622858 311.66050124 -387.10546875 312.0859375 C-387.92640518 312.21297562 -388.74734161 312.34001373 -389.59315491 312.47090149 C-403.56807397 314.5166153 -403.56807397 314.5166153 -407.91748047 311.76538086 C-409.90766679 308.60164906 -410.41935996 305.95842797 -411.0234375 302.265625 C-411.14576248 301.55082474 -411.26808746 300.83602448 -411.39411926 300.0995636 C-411.66100451 298.53065014 -411.92066169 296.96049435 -412.17404175 295.38934326 C-412.88420907 290.99103641 -413.64860524 286.60194696 -414.40234375 282.2109375 C-414.56321976 281.26410095 -414.72409576 280.3172644 -414.8898468 279.34173584 C-416.70216621 268.72627381 -418.72511065 258.1521064 -420.74627686 247.57479858 C-425.52741285 222.52761502 -430.05680968 197.44143168 -434.453125 172.32421875 C-434.64519531 171.22704529 -434.83726562 170.12987183 -435.03515625 168.99945068 C-435.44351243 166.66659249 -435.85182652 164.33372693 -436.26010132 162.00085449 C-436.89534652 158.37146169 -437.53092504 154.74212735 -438.16650391 151.11279297 C-439.01961135 146.24104728 -439.87054083 141.36892761 -440.72021484 136.49658203 C-442.7133197 125.08847458 -444.73911637 113.68845799 -446.8671875 102.3046875 C-447.05641785 101.28731003 -447.24564819 100.26993256 -447.44061279 99.22172546 C-448.32076238 94.49102949 -449.2096418 89.76238237 -450.1171875 85.03686523 C-453.66245739 66.27906899 -453.66245739 66.27906899 -452.453125 60.32421875 C-450.6334296 57.71521674 -449.43998326 57.32121099 -446.29330444 56.60102844 C-444.99043488 56.43789658 -443.68756531 56.27476471 -442.34521484 56.10668945 C-441.62778233 56.01312101 -440.91034981 55.91955257 -440.17117691 55.82314873 C-437.7951584 55.51603158 -435.41729886 55.22689666 -433.0390625 54.9375 C-431.36282377 54.72395322 -429.68674915 54.50911457 -428.01083374 54.29304504 C-424.53623459 53.84658477 -421.06090188 53.40665307 -417.58483887 52.97174072 C-412.82093795 52.37375703 -408.06075145 51.75049984 -403.30175781 51.11474609 C-402.56767795 51.01670024 -401.83359808 50.91865438 -401.07727337 50.81763744 C-399.60076914 50.62032672 -398.12427369 50.42295035 -396.64778709 50.22550774 C-392.8934346 49.72480279 -389.13825985 49.23036198 -385.38305664 48.73608398 C-384.62822904 48.63671697 -383.87340143 48.53734995 -383.09570026 48.43497181 C-381.54863565 48.23137223 -380.00156443 48.02782277 -378.45448685 47.82432175 C-376.01747786 47.50374081 -373.58050067 47.18291885 -371.14352417 46.86209106 C-347.66479753 43.7722256 -324.17918574 40.74351066 -300.68438721 37.77816772 C-280.82887515 35.27195596 -260.98156252 32.70878847 -241.13796616 30.11029434 C-217.8313544 27.0586067 -194.5214283 24.03536054 -171.203125 21.07421875 C-170.5448962 20.99059586 -169.8866674 20.90697296 -169.20849228 20.82081604 C-151.56221091 18.57948168 -133.91011095 16.39388583 -116.24911499 14.27185059 C-105.2317799 12.94568862 -94.24935913 11.46653027 -83.27099609 9.8449707 C-66.51628248 7.4099915 -49.68288809 5.54349312 -32.86517334 3.6027832 C-30.58788608 3.33978214 -28.31076606 3.07538147 -26.03369141 2.81054688 C-22.25746937 2.37198968 -18.48046261 1.94057179 -14.703125 1.51171875 C-13.62796631 1.38788818 -12.55280762 1.26405762 -11.44506836 1.13647461 C-7.63385401 0.7116169 -3.81792782 0.3584706 0 0 Z " fill="#459555" transform="translate(721.453125,246.67578125)"/>
<path d="M0 0 C5.84116711 4.54312998 9.18945021 11.04665881 12.12890625 17.71875 C12.40468002 18.33971558 12.6804538 18.96068115 12.96458435 19.60046387 C13.83581136 21.56470159 14.69947799 23.53214538 15.5625 25.5 C16.43054391 27.46717943 17.30018347 29.43363895 18.17112732 31.39953613 C18.96015781 33.18239778 19.74497399 34.96712278 20.52954102 36.75195312 C21.52830992 38.95809982 22.58346264 41.13940266 23.68725586 43.29492188 C25 46 25 46 25 48 C25.5732753 47.92483154 26.1465506 47.84966309 26.73719788 47.7722168 C32.72278879 46.98827523 38.70917154 46.21060866 44.69604492 45.43652344 C46.92802356 45.14710594 49.15979787 44.85610791 51.39135742 44.56347656 C54.60542778 44.14228794 57.82019855 43.72685415 61.03515625 43.3125 C62.02709488 43.18125732 63.01903351 43.05001465 64.04103088 42.91479492 C79.68119528 40.9170557 79.68119528 40.9170557 87 45 C93.197201 50.34758474 95.40420325 55.89801293 97 63.75 C97.35481445 65.34739014 97.35481445 65.34739014 97.71679688 66.97705078 C100.1448496 78.12559677 102.25902256 89.34807379 104.39233398 100.55639648 C106.13180885 109.67929088 107.99731521 118.75646808 110.0625 127.8125 C112.08318344 136.70206287 113.92847645 145.60548739 115.625 154.5625 C118.58161243 170.13884971 121.78445012 185.6627677 125 201.1875 C125.25130676 202.40269318 125.50261353 203.61788635 125.76153564 204.86990356 C128.76121863 219.36763775 131.80304603 233.85530112 134.94116211 248.32377625 C137.06362874 258.1523363 138.97149374 268.01738572 140.83203125 277.8984375 C141.58363141 281.87055332 142.37054132 285.83231442 143.19921875 289.7890625 C143.38726074 290.69333984 143.57530273 291.59761719 143.76904297 292.52929688 C144.11691936 294.19085202 144.47084552 295.85115916 144.83251953 297.50976562 C146.11644733 303.67369009 147.32241157 309.58317886 144.1875 315.3125 C142 318 142 318 140.37060547 319.41894531 C137.64196447 322.5665547 139.01065997 328.12796701 139.29296875 332.1328125 C139.48624499 337.19160801 138.95689829 340.56931108 135.63647461 344.51220703 C128.63220184 350.88010771 118.58073967 351.27705576 109.59753418 352.52301025 C105.23424609 353.12885324 100.87729707 353.77770693 96.51953125 354.421875 C95.63453949 354.55163727 94.74954773 354.68139954 93.83773804 354.81509399 C84.01447915 356.26784452 74.24900832 358.0180054 64.48461914 359.81982422 C54.88648829 361.5660656 45.25825775 363.02039816 35.60531616 364.43125916 C23.34197618 366.2289376 11.1088774 368.20067664 -1.125 370.1875 C-16.13573705 372.62191651 -31.14819681 375.03654767 -46.1796875 377.33984375 C-69.76719817 380.96348191 -93.18819001 384.64420822 -116.41601562 390.16162109 C-120.20189858 391.04722886 -123.99658114 391.88609937 -127.796875 392.70703125 C-128.45417603 392.84903458 -129.11147705 392.9910379 -129.78869629 393.13734436 C-131.1255394 393.42588082 -132.46241293 393.71427634 -133.79931641 394.00253296 C-142.59229985 395.90233882 -151.37528152 397.84354318 -160.140625 399.8671875 C-160.82505173 400.02519333 -161.50947845 400.18319916 -162.21464539 400.34599304 C-163.61831729 400.67022093 -165.02197827 400.99449611 -166.42562866 401.31881714 C-167.1307962 401.48173248 -167.83596375 401.64464783 -168.5625 401.8125 C-169.62786484 402.05868576 -169.62786484 402.05868576 -170.7147522 402.30984497 C-184.77628466 405.5521805 -198.88812189 408.53799993 -213.00930786 411.50790405 C-228.27478954 414.72366498 -243.47480695 418.16282789 -258.65615845 421.75317383 C-273.35505243 425.22368235 -288.10089611 428.37864332 -302.91601562 431.31298828 C-304.41677441 431.611764 -305.91742812 431.91106808 -307.41796875 432.2109375 C-308.4942025 432.42557396 -308.4942025 432.42557396 -309.59217834 432.64454651 C-315.99837156 433.94784797 -322.30668411 435.5642294 -328.61962891 437.25854492 C-334.21037818 438.48482728 -338.4111539 438.0590734 -343.75 435.875 C-350.18389762 430.51341865 -352.9331234 422.99275337 -356 415.4375 C-356.96994364 413.09576943 -357.94135625 410.75464689 -358.9140625 408.4140625 C-359.67058105 406.5872998 -359.67058105 406.5872998 -360.44238281 404.72363281 C-362.75074878 399.1804336 -365.1592317 393.68042602 -367.56134033 388.17739868 C-373.17440767 375.31231233 -378.64392564 362.39067456 -384.05203247 349.4382782 C-384.31587738 348.80638077 -384.57972229 348.17448334 -384.8515625 347.5234375 C-385.24455032 346.58205681 -385.24455032 346.58205681 -385.64547729 345.62165833 C-387.44435462 341.31703539 -389.26054387 337.02002829 -391.0859375 332.7265625 C-391.57755371 331.56995117 -392.06916992 330.41333984 -392.57568359 329.22167969 C-393.48565702 327.08353849 -394.39727701 324.94609681 -395.31103516 322.80957031 C-397.45702891 317.76401496 -399.50596543 312.70210458 -401.4375 307.5703125 C-403.54397242 302.03192369 -405.95016218 296.69155322 -408.46923828 291.33056641 C-411.13774314 285.52454674 -413.52270749 279.60244254 -415.9375 273.6875 C-419.73610857 264.42508059 -423.59321416 255.19918738 -427.6953125 246.06640625 C-429.85895471 240.98119927 -431.60702449 236.58462528 -431 231 C-430.2265625 230.01 -430.2265625 230.01 -429.4375 229 C-427.71922461 227.04594953 -427.71922461 227.04594953 -428.125 224.3125 C-428.8317185 221.63706567 -429.64721183 219.10572468 -430.5625 216.5 C-431.80516577 212.82736898 -432.60790305 209.90794818 -432 206 C-429.03254482 200.29335543 -425.09565128 197.03188376 -419 195 C-419.65220086 190.85314182 -421.01999625 187.38353555 -422.72265625 183.5546875 C-423.26718584 182.29987358 -423.81077534 181.04465137 -424.35351562 179.7890625 C-425.20244816 177.83678624 -426.05677607 175.88776218 -426.92797852 173.9453125 C-430.4194006 166.13122482 -433.71292248 158.71051399 -432 150 C-429.36598784 144.69005506 -424.86520735 143.36533778 -419.5625 141.5 C-417.94920569 140.90498333 -416.33592454 140.30993096 -414.72265625 139.71484375 C-413.92617676 139.42722168 -413.12969727 139.13959961 -412.30908203 138.84326172 C-409.01588299 137.64060688 -405.76138704 136.34883478 -402.5 135.0625 C-397.24758842 133 -397.24758842 133 -395 133 C-395.2165625 132.07058594 -395.433125 131.14117187 -395.65625 130.18359375 C-395.9346875 128.94738281 -396.213125 127.71117187 -396.5 126.4375 C-396.7784375 125.21933594 -397.056875 124.00117188 -397.34375 122.74609375 C-398.25741973 117.5305624 -398.82852501 113.56499169 -396.3125 108.8125 C-391.96552008 103.52563253 -388.58126078 101.52037052 -381.796875 100.44921875 C-381.06466736 100.33180832 -380.33245972 100.21439789 -379.57806396 100.09342957 C-369.70307498 98.56162528 -359.76874449 97.41863936 -349.84661865 96.24246216 C-346.14400959 95.79982925 -342.44323521 95.34396097 -338.74267578 94.88452148 C-326.91630482 93.41978489 -315.09381693 91.9934634 -303.24272156 90.74224854 C-271.02774126 87.31371186 -241.90013856 81.55776821 -211.67236328 69.80175781 C-205.75622899 67.50230563 -199.76513967 65.46297595 -193.75 63.4375 C-191.75561393 62.74737701 -189.76214702 62.0545929 -187.76953125 61.359375 C-186.71717285 60.99263672 -185.66481445 60.62589844 -184.58056641 60.24804688 C-183.39897949 59.83619141 -182.21739258 59.42433594 -181 59 C-179.55780392 58.49797799 -178.11558226 57.9960295 -176.67333984 57.49414062 C-159.3051079 51.44962664 -141.9423608 45.38968812 -124.59375 39.2890625 C-119.87506371 37.63002704 -115.15632419 35.97114319 -110.4375 34.3125 C-109.25577209 33.89711975 -108.07404419 33.4817395 -106.85650635 33.05377197 C-85.25206176 25.46310041 -63.61290157 17.97613399 -41.95678711 10.53442383 C-40.79750702 10.13580643 -39.63822693 9.73718903 -38.44381714 9.32649231 C-36.22099775 8.56241127 -33.99788414 7.79918551 -31.77444458 7.03691101 C-27.31490307 5.50451478 -22.86138592 3.96420428 -18.43725586 2.33203125 C-17.78456223 2.09197861 -17.13186859 1.85192596 -16.45939636 1.604599 C-14.84734752 1.00650875 -13.23932773 0.3975859 -11.63183594 -0.21264648 C-7.56607507 -1.42898033 -3.97567498 -1.53760079 0 0 Z M68.63479614 60.22106934 C65.72284204 60.50935349 62.81714956 60.83730001 59.91015625 61.171875 C58.82660858 61.29411438 57.74306091 61.41635376 56.62667847 61.54229736 C53.10483469 61.94100851 49.58363771 62.34510385 46.0625 62.75 C44.85796173 62.88760742 43.65342346 63.02521484 42.41238403 63.16699219 C21.41570827 65.5664325 0.45445902 68.14050812 -20.48060608 71.03085327 C-23.23688315 71.41131718 -25.99331866 71.79062 -28.74975586 72.16992188 C-32.24873598 72.6515742 -35.74685336 73.1388104 -39.24438477 73.63085938 C-51.76757301 75.37482659 -64.31451752 76.8840996 -76.87109375 78.36328125 C-96.96535154 80.7312215 -117.03215607 83.28323156 -137.09487915 85.90355301 C-141.6951821 86.50381236 -146.29584028 87.10133647 -150.89648438 87.69897461 C-152.78076199 87.94376925 -154.66503934 88.18856601 -156.54931641 88.43336487 C-157.48289978 88.55464815 -158.41648315 88.67593143 -159.37835693 88.80088997 C-162.19285924 89.16663471 -165.00732335 89.5326721 -167.82177734 89.89878845 C-183.63660833 91.95566422 -199.45409794 93.9914706 -215.27255249 96.02026367 C-234.88008585 98.53505526 -254.48633169 101.05950306 -274.08984375 103.60546875 C-274.934704 103.71518572 -275.77956425 103.82490269 -276.65002632 103.93794441 C-285.05254808 105.02926542 -293.45492455 106.12169369 -301.85696507 107.21671391 C-305.82126677 107.73335008 -309.78561656 108.24961641 -313.75 108.765625 C-314.51024412 108.86458509 -315.27048824 108.96354519 -316.05377007 109.06550407 C-325.47054682 110.29052231 -334.8893245 111.49687924 -344.3125 112.671875 C-345.7372036 112.85040009 -345.7372036 112.85040009 -347.19068909 113.03253174 C-351.30197393 113.54764208 -355.41366543 114.05800554 -359.52709961 114.55566406 C-360.88137987 114.72435098 -362.23563048 114.89327618 -363.58984375 115.0625 C-365.25841431 115.26552734 -365.25841431 115.26552734 -366.96069336 115.47265625 C-371.23515053 116.21430839 -374.88183447 116.88183447 -378 120 C-379.09175901 128.35996398 -377.22783058 136.85788851 -375.7265625 145.05078125 C-375.48407985 146.41186831 -375.24240189 147.77309894 -375.00146484 149.13446045 C-374.35474 152.77433832 -373.69616856 156.41197759 -373.03510284 160.04927444 C-372.48357649 163.09297082 -371.93934847 166.13795286 -371.39523888 169.18298244 C-367.48731573 191.05182251 -363.45886128 212.89857427 -359.37841797 234.73583984 C-356.9349971 247.82820311 -354.60128852 260.93292492 -352.39181519 274.06665039 C-350.58232186 284.80816069 -348.59491793 295.50545371 -346.46435547 306.18847656 C-344.77474653 314.74436866 -343.23841806 323.31878751 -341.76171875 331.9140625 C-341.36396043 334.20634609 -340.96592844 336.49858221 -340.56762695 338.79077148 C-339.97064939 342.22666181 -339.37908614 345.66301578 -338.80502319 349.10281372 C-338.26694916 352.32505085 -337.70950885 355.54341844 -337.1484375 358.76171875 C-336.91268257 360.22365158 -336.91268257 360.22365158 -336.67216492 361.71511841 C-336.00840573 365.43909792 -335.37295758 368.37359578 -333.42822266 371.63989258 C-326.76418773 375.37258296 -317.25947609 372.46711013 -310.10546875 371.34765625 C-308.37123909 371.08464973 -308.37123909 371.08464973 -306.60197449 370.81632996 C-302.79619373 370.23780508 -298.99189107 369.6500878 -295.1875 369.0625 C-292.5134114 368.65377289 -289.83899453 368.24721633 -287.16455078 367.84082031 C-282.29501891 367.10028605 -277.42581657 366.35765295 -272.55702591 365.61226082 C-259.7549019 363.65262094 -246.94700509 361.73189401 -234.13858032 359.81393433 C-230.5195496 359.27165929 -226.900733 358.72797892 -223.28198242 358.18383789 C-193.94312107 353.77504502 -164.58569887 349.49982441 -135.22020626 345.27267551 C-108.91781789 341.4861053 -82.61774252 337.69749291 -56.35479736 333.64465332 C-43.5504375 331.66931372 -30.73432666 329.82125071 -17.89727783 328.07131958 C-7.55797679 326.66052651 2.7566225 325.13693232 13.0625 323.5 C23.67663266 321.81660763 34.29786399 320.20273647 44.9375 318.6875 C45.96129257 318.54106049 45.96129257 318.54106049 47.00576782 318.3916626 C56.2562055 317.06980813 65.51213428 315.79144226 74.77198792 314.5372467 C79.96607446 313.83237721 85.15910165 313.11986384 90.3520813 312.40689087 C92.93806204 312.05402062 95.52454934 311.70484185 98.11154175 311.35946655 C101.76836142 310.87106652 105.42330837 310.37032749 109.078125 309.8671875 C110.17772049 309.7235527 111.27731598 309.57991791 112.41023254 309.43193054 C118.07400257 308.63937913 122.93352254 307.71236549 128 305 C130.77385376 299.45229248 127.3320596 290.0877325 126.14453125 284.2265625 C125.96245117 283.31366455 125.78037109 282.4007666 125.59277344 281.46020508 C125.00358605 278.51426816 124.40834295 275.56959738 123.8125 272.625 C123.40126813 270.57861683 122.99005405 268.53223009 122.57885742 266.48583984 C120.22042799 254.79231695 117.75164006 243.13419149 115.10107422 231.50317383 C113.21021418 223.13753071 111.54596923 214.7358364 109.9375 206.3125 C109.81120209 205.65116058 109.68490417 204.98982117 109.55477905 204.30844116 C109.42930695 203.65131134 109.30383484 202.99418152 109.17456055 202.31713867 C106.55924556 188.63001089 103.70906015 174.99815711 100.79812622 161.37117004 C100.19174245 158.52933387 99.58789876 155.68696147 98.98468018 152.8444519 C98.66150835 151.32290719 98.33757411 149.80152421 98.01287842 148.28030396 C95.61499675 137.02970795 93.35363203 125.75534229 91.16589355 114.46222496 C90.7346489 112.23969289 90.30132943 110.01757635 89.8671875 107.79560852 C89.723311 107.0592237 89.57943451 106.32283888 89.43119812 105.56413937 C89.13956356 104.0719552 88.84782549 102.57979125 88.5559845 101.08764744 C87.68564575 96.63079005 86.82959223 92.17146401 85.98313522 87.71001339 C85.44601026 84.89646999 84.89606675 82.08553912 84.3428421 79.27512169 C83.96148837 77.31639384 83.59600988 75.35459639 83.230896 73.39277649 C82.9964679 72.21305771 82.76203979 71.03333893 82.52050781 69.81787109 C82.32257629 68.78665131 82.12464478 67.75543152 81.92071533 66.69296265 C80.84325677 63.54154814 79.58255511 62.07200631 77 60 C74.12738456 59.63684304 71.50559889 59.95274301 68.63479614 60.22106934 Z " fill="#105228" transform="translate(647,187)"/>
<path d="M0 0 C3.51124503 0.44698365 4.35400316 1.56407601 6.546875 4.32421875 C7.36667168 6.98096169 7.96794743 9.4212158 8.46630859 12.13671875 C8.62306564 12.92138016 8.77982269 13.70604156 8.94132996 14.51448059 C9.45718262 17.11510374 9.95113221 19.71939809 10.4453125 22.32421875 C10.80495229 24.15742308 11.16603155 25.99034555 11.5284729 27.82299805 C12.4832345 32.66930284 13.41988304 37.51893182 14.35235596 42.36956787 C15.28269667 47.19615276 16.22721568 52.01995046 17.171875 56.84375 C17.35567876 57.78243801 17.53948252 58.72112602 17.72885609 59.68825912 C18.09726217 61.56964671 18.46572249 63.45102368 18.83423805 65.33238983 C19.38235994 68.13440525 19.92835938 70.93682802 20.4740448 73.73931885 C22.91953768 86.27570048 25.52085232 98.76746889 28.23730469 111.24804688 C30.08468175 119.75507509 31.76486736 128.29454742 33.44509888 136.83584595 C36.1953298 150.80115469 39.01568564 164.74330618 42.109375 178.63671875 C44.65669121 190.09102829 47.06669342 201.56731544 49.38058472 213.07089233 C49.73696328 214.84249787 50.09461654 216.61384755 50.4536438 218.38491821 C50.95513424 220.86254903 51.45109561 223.34122177 51.9453125 225.8203125 C52.09289505 226.54711212 52.2404776 227.27391174 52.39253235 228.0227356 C55.18183509 242.15671149 55.18183509 242.15671149 53.21484375 245.7734375 C49.2420584 248.08265534 45.37766389 248.52976768 40.859375 249.13671875 C39.7751123 249.29648193 38.69084961 249.45624512 37.57373047 249.62084961 C34.31228754 250.0970509 31.04915249 250.55680486 27.78460693 251.01098633 C23.73114049 251.57838097 19.68024127 252.16371066 15.62890625 252.74609375 C9.74791322 253.58994005 3.86651301 254.43078034 -2.01586914 255.26489258 C-21.7119254 258.05942764 -41.39579958 260.93483563 -61.078125 263.82421875 C-61.8885601 263.94315365 -62.69899521 264.06208855 -63.53398895 264.18462753 C-85.52014198 267.41126701 -107.50463949 270.64892546 -129.47900391 273.95507812 C-140.23834655 275.57022968 -151.00612127 277.12271648 -161.77734375 278.65625 C-180.40444851 281.30833523 -199.02214452 284.023161 -217.63819504 286.75164413 C-220.31868526 287.14449523 -222.99919922 287.53718404 -225.67971802 287.92984009 C-237.93786567 289.7256156 -250.19562887 291.52400181 -262.453125 293.32421875 C-263.51969078 293.48083229 -263.51969078 293.48083229 -264.60780334 293.64060974 C-294.88104841 298.08602183 -325.13965138 302.62120648 -355.38256836 307.26831055 C-361.02534067 308.13486676 -366.66903943 308.99506422 -372.31378174 309.84869385 C-374.38611918 310.16259646 -376.4581885 310.47827492 -378.52996826 310.7958374 C-381.38750977 311.23255656 -384.24622858 311.66050124 -387.10546875 312.0859375 C-387.92640518 312.21297562 -388.74734161 312.34001373 -389.59315491 312.47090149 C-403.56807397 314.5166153 -403.56807397 314.5166153 -407.91748047 311.76538086 C-409.90766679 308.60164906 -410.41935996 305.95842797 -411.0234375 302.265625 C-411.14576248 301.55082474 -411.26808746 300.83602448 -411.39411926 300.0995636 C-411.66100451 298.53065014 -411.92066169 296.96049435 -412.17404175 295.38934326 C-412.88420907 290.99103641 -413.64860524 286.60194696 -414.40234375 282.2109375 C-414.56321976 281.26410095 -414.72409576 280.3172644 -414.8898468 279.34173584 C-416.70216621 268.72627381 -418.72511065 258.1521064 -420.74627686 247.57479858 C-425.52741285 222.52761502 -430.05680968 197.44143168 -434.453125 172.32421875 C-434.64519531 171.22704529 -434.83726562 170.12987183 -435.03515625 168.99945068 C-435.44351243 166.66659249 -435.85182652 164.33372693 -436.26010132 162.00085449 C-436.89534652 158.37146169 -437.53092504 154.74212735 -438.16650391 151.11279297 C-439.01961135 146.24104728 -439.87054083 141.36892761 -440.72021484 136.49658203 C-442.7133197 125.08847458 -444.73911637 113.68845799 -446.8671875 102.3046875 C-447.05641785 101.28731003 -447.24564819 100.26993256 -447.44061279 99.22172546 C-448.32076238 94.49102949 -449.2096418 89.76238237 -450.1171875 85.03686523 C-453.66245739 66.27906899 -453.66245739 66.27906899 -452.453125 60.32421875 C-450.6334296 57.71521674 -449.43998326 57.32121099 -446.29330444 56.60102844 C-444.99043488 56.43789658 -443.68756531 56.27476471 -442.34521484 56.10668945 C-441.62778233 56.01312101 -440.91034981 55.91955257 -440.17117691 55.82314873 C-437.7951584 55.51603158 -435.41729886 55.22689666 -433.0390625 54.9375 C-431.36282377 54.72395322 -429.68674915 54.50911457 -428.01083374 54.29304504 C-424.53623459 53.84658477 -421.06090188 53.40665307 -417.58483887 52.97174072 C-412.82093795 52.37375703 -408.06075145 51.75049984 -403.30175781 51.11474609 C-402.56767795 51.01670024 -401.83359808 50.91865438 -401.07727337 50.81763744 C-399.60076914 50.62032672 -398.12427369 50.42295035 -396.64778709 50.22550774 C-392.8934346 49.72480279 -389.13825985 49.23036198 -385.38305664 48.73608398 C-384.62822904 48.63671697 -383.87340143 48.53734995 -383.09570026 48.43497181 C-381.54863565 48.23137223 -380.00156443 48.02782277 -378.45448685 47.82432175 C-376.01747786 47.50374081 -373.58050067 47.18291885 -371.14352417 46.86209106 C-347.66479753 43.7722256 -324.17918574 40.74351066 -300.68438721 37.77816772 C-280.82887515 35.27195596 -260.98156252 32.70878847 -241.13796616 30.11029434 C-217.8313544 27.0586067 -194.5214283 24.03536054 -171.203125 21.07421875 C-170.5448962 20.99059586 -169.8866674 20.90697296 -169.20849228 20.82081604 C-151.56221091 18.57948168 -133.91011095 16.39388583 -116.24911499 14.27185059 C-105.2317799 12.94568862 -94.24935913 11.46653027 -83.27099609 9.8449707 C-66.51628248 7.4099915 -49.68288809 5.54349312 -32.86517334 3.6027832 C-30.58788608 3.33978214 -28.31076606 3.07538147 -26.03369141 2.81054688 C-22.25746937 2.37198968 -18.48046261 1.94057179 -14.703125 1.51171875 C-13.62796631 1.38788818 -12.55280762 1.26405762 -11.44506836 1.13647461 C-7.63385401 0.7116169 -3.81792782 0.3584706 0 0 Z M-62.5234375 26.42578125 C-63.4536824 26.54246155 -64.38392731 26.65914185 -65.34236145 26.77935791 C-68.4212394 27.16705447 -71.49972782 27.55772376 -74.578125 27.94921875 C-75.64273956 28.08426819 -76.70735413 28.21931763 -77.80422974 28.35845947 C-91.69716921 30.12665413 -105.55279329 32.04441765 -119.390625 34.19921875 C-137.03447436 36.93922051 -154.73483385 39.19238528 -172.453125 41.38671875 C-173.14895565 41.47292355 -173.8447863 41.55912834 -174.56170273 41.6479454 C-183.33304449 42.73399555 -192.10541405 43.81157644 -200.87817383 44.8861084 C-209.320719 45.92074251 -217.76245218 46.96191789 -226.203125 48.01171875 C-226.99568695 48.11028168 -227.7882489 48.2088446 -228.60482788 48.31039429 C-243.39840751 50.15490577 -258.16271644 52.18873812 -272.92494202 54.26747131 C-283.86894552 55.80725718 -294.81710134 57.31696289 -305.765625 58.82421875 C-306.84813538 58.97351837 -307.93064575 59.12281799 -309.04595947 59.27664185 C-320.39146018 60.8399415 -331.73885832 62.37896182 -343.1015625 63.8125 C-344.00708359 63.92693451 -344.91260468 64.04136902 -345.8455658 64.15927124 C-350.05471048 64.68971272 -354.264548 65.21337013 -358.47583008 65.7265625 C-359.96176092 65.911381 -361.4476827 66.0962724 -362.93359375 66.28125 C-364.20098389 66.4356958 -365.46837402 66.5901416 -366.77416992 66.74926758 C-370.76412278 67.37282183 -374.5512499 68.29093292 -378.453125 69.32421875 C-378.49050781 70.36320312 -378.52789062 71.4021875 -378.56640625 72.47265625 C-379.20086164 87.06162503 -381.97462722 100.66130834 -393.140625 111.19921875 C-401.54045688 117.83492409 -411.06713903 121.22492371 -421.453125 123.32421875 C-420.78874714 131.65758952 -419.44740903 139.84341266 -418.015625 148.07421875 C-417.89084778 148.79788635 -417.76607056 149.52155396 -417.63751221 150.26715088 C-412.27282985 181.34930537 -406.38376612 212.3457762 -400.453125 243.32421875 C-399.88699493 243.33891205 -399.32086487 243.35360535 -398.73757935 243.3687439 C-383.40338365 243.7848976 -370.69878866 245.18090796 -358.453125 255.32421875 C-357.49986328 256.07445312 -357.49986328 256.07445312 -356.52734375 256.83984375 C-348.76740071 263.65345228 -344.70765615 274.75206831 -341.453125 284.32421875 C-331.32818158 284.02243206 -321.55365553 282.80090854 -311.57446289 281.12036133 C-298.7443051 278.98498188 -285.85741501 277.26480122 -272.96948242 275.51879883 C-264.27498206 274.33269901 -255.62257692 273.05051723 -246.98948669 271.47737122 C-237.36791247 269.73945261 -227.6878259 268.37143599 -218.015625 266.94921875 C-216.11650506 266.66818088 -214.21741644 266.38693119 -212.31835938 266.10546875 C-202.76302311 264.69076705 -193.20596035 263.28778063 -183.64917278 261.88292408 C-181.54085362 261.5729989 -179.43253572 261.2630651 -177.32421875 260.953125 C-176.61171526 260.84838175 -175.89921177 260.7436385 -175.16511726 260.63572121 C-157.09306568 257.97877041 -139.02258827 255.31121358 -120.953125 252.63671875 C-120.09481709 252.50970078 -119.23650917 252.3826828 -118.35219193 252.2518158 C-83.03985689 247.02551669 -47.74236687 241.70410675 -12.453125 236.32421875 C-12.48140381 234.60525391 -12.48140381 234.60525391 -12.51025391 232.8515625 C-12.52550641 231.32161892 -12.54029279 229.79167064 -12.5546875 228.26171875 C-12.56830322 227.50955078 -12.58191895 226.75738281 -12.59594727 225.98242188 C-12.67883974 214.19893846 -8.66914267 204.08378953 -0.7109375 195.4296875 C5.87355029 189.15939726 14.16181624 185.58933304 22.546875 182.32421875 C21.91431006 175.04972198 20.52524556 168.05034336 18.99432373 160.91546631 C15.24415839 143.3882647 12.00077738 125.77507494 8.83203125 108.13476562 C6.30876055 94.14509855 3.51554471 80.22615132 0.546875 66.32421875 C-0.7117334 66.22230225 -1.9703418 66.12038574 -3.26708984 66.01538086 C-15.72571966 64.9726459 -26.08980014 62.70236215 -35.9296875 54.4609375 C-37.40348623 53.12487698 -37.40348623 53.12487698 -39.453125 53.32421875 C-39.72253906 52.7621875 -39.99195313 52.20015625 -40.26953125 51.62109375 C-41.52550547 49.18375765 -42.93627059 46.89822528 -44.390625 44.57421875 C-48.11158633 38.40286826 -50.54976742 32.55107937 -51.453125 25.32421875 C-55.16228069 25.32421875 -58.84679633 25.96270087 -62.5234375 26.42578125 Z " fill="#7FBF7F" transform="translate(721.453125,246.67578125)"/>
<path d="M0 0 C17.93684103 14.70933421 29.92469896 34.63877929 36.39355469 56.74609375 C36.73386719 57.88691406 37.07417969 59.02773438 37.42480469 60.203125 C43.51636808 84.87959706 39.8820595 112.45833851 27.76855469 134.734375 C15.30822987 155.12661955 -1.80464785 169.65703267 -25.05566406 175.671875 C-47.59858998 180.60148905 -70.15609074 175.64041735 -89.60644531 163.74609375 C-115.14152358 147.0641113 -130.47202955 122.23614172 -137.17675781 92.86987305 C-142.40889636 67.0094337 -138.33344815 39.11781144 -123.86816406 16.91015625 C-110.1859376 -2.23078232 -92.78143177 -15.57079826 -69.24707031 -19.8671875 C-43.2743555 -22.62609176 -20.66549936 -16.13039585 0 0 Z " fill="#14552B" transform="translate(572.6064453125,323.25390625)"/>
<path d="M0 0 C0.66 4.95 1.32 9.9 2 15 C4.3821875 15.12375 4.3821875 15.12375 6.8125 15.25 C17.657702 16.29280788 26.33710503 20.14415444 34 28 C36.76046093 31.84226319 39 35.19844246 39 40 C36.41958904 41.00816056 33.83613056 42.0067111 31.25 43 C30.52039063 43.28617187 29.79078125 43.57234375 29.0390625 43.8671875 C28.33007812 44.13789063 27.62109375 44.40859375 26.890625 44.6875 C26.24125977 44.93886719 25.59189453 45.19023437 24.92285156 45.44921875 C23 46 23 46 19 46 C17.359375 44.390625 17.359375 44.390625 15.75 42.25 C11.25428572 36.91193084 7.63623828 34.36237426 0.58984375 33.66015625 C-5.8379553 33.49118151 -10.37312445 33.63859615 -16 37 C-19.22565178 40.65573868 -19.47592814 44.09674358 -19.2734375 48.79296875 C-18.77572296 52.8102361 -17.62953463 55.56870759 -14.54907227 58.27441406 C-8.17130703 62.68411874 -1.48831821 63.43438376 6.0625 64.5 C39.32696457 69.7382211 39.32696457 69.7382211 49.78125 83.18359375 C55.48506001 91.68446444 55.24660836 102.34311135 53.4140625 112.12890625 C50.79190915 120.58474938 45.42168447 127.20735718 37.95703125 131.921875 C32.967599 134.52505704 28.60399351 136.26110308 23 137 C23.2165625 137.91523438 23.433125 138.83046875 23.65625 139.7734375 C23.9346875 140.96195313 24.213125 142.15046875 24.5 143.375 C24.7784375 144.55835938 25.056875 145.74171875 25.34375 146.9609375 C26 150 26 150 26 152 C17.585 152.99 17.585 152.99 9 154 C7.95674301 149.34011876 6.92372227 144.68518595 6 140 C4.54980469 139.85304688 4.54980469 139.85304688 3.0703125 139.703125 C-10.97755158 138.08970695 -22.24465935 134.48548614 -31.4375 123 C-33.9423357 119.44743524 -35.1168816 116.23896832 -36 112 C-29.37608502 109.20691585 -22.75266574 106.46732017 -16 104 C-15.57589844 104.66386719 -15.15179688 105.32773437 -14.71484375 106.01171875 C-9.80248359 113.40724997 -5.08012056 119.04154262 4 121 C10.66252374 121.63887214 17.00706755 121.17968211 23 118 C26.14966277 115.31639712 28.61665001 112.21684985 29 108 C29.103125 106.906875 29.20625 105.81375 29.3125 104.6875 C28.94349883 100.33328615 27.85925169 97.2665525 25 94 C17.86237862 88.51087103 7.63355911 87.58199743 -1.015625 86.171875 C-15.19712668 83.80485157 -28.08523746 81.05156062 -37.515625 69.203125 C-43.13913903 60.85664629 -44.24178311 51.15603828 -42.5390625 41.34375 C-40.04707943 31.84489688 -34.4230436 24.97725303 -26 20 C-22.70407641 18.48387515 -19.41832308 17.23439445 -16 16 C-16.33 11.38 -16.66 6.76 -17 2 C-14.79885109 0.89942555 -13.18873532 0.69879307 -10.75 0.4375 C-10.00234375 0.35371094 -9.2546875 0.26992188 -8.484375 0.18359375 C-5.66328062 -0.02488335 -2.82878705 0 0 0 Z " fill="#D3E6CC" transform="translate(519,325)"/>
<path d="M0 0 C1.25562744 0.01353516 1.25562744 0.01353516 2.53662109 0.02734375 C12.62312181 0.30986779 19.30808618 3.24027553 26.6484375 10.23046875 C35.63299326 20.26263081 36.46162541 32.37914537 35.81591797 45.22363281 C35.00734254 54.59979901 31.48988869 62.95181468 24.625 69.4375 C14.73178337 76.92600329 4.8202232 78.51553078 -7.375 77.4375 C-16.82934725 75.31779921 -24.43356704 70.90320889 -29.6875 62.6875 C-36.0230538 51.00038849 -37.34369242 38.09187865 -34.68359375 25.046875 C-31.60651412 15.82851091 -25.86396843 8.28221431 -17.375 3.4375 C-11.58370467 0.66749848 -6.38053892 -0.08227977 0 0 Z " fill="#F8FAF5" transform="translate(336.375,685.5625)"/>
<path d="M0 0 C7.79278301 6.38514809 11.76678493 13.65803414 13.91015625 23.46875 C13.91015625 24.45875 13.91015625 25.44875 13.91015625 26.46875 C7.97015625 26.46875 2.03015625 26.46875 -4.08984375 26.46875 C-4.60546875 24.9425 -5.12109375 23.41625 -5.65234375 21.84375 C-8.09494998 15.72857269 -11.49207879 12.29279167 -17.32421875 9.3359375 C-24.10967217 7.20829532 -34.19387622 7.08098702 -40.71484375 10.03125 C-48.69034442 15.07303126 -52.36568622 22.83473988 -54.6796875 31.73828125 C-56.60919444 44.58328457 -56.00415781 58.70056515 -49.02734375 69.90625 C-45.14398039 74.90950445 -41.2607886 77.87598992 -35.08984375 79.46875 C-27.71696653 80.28469155 -19.25837206 80.99664778 -12.703125 76.94140625 C-8.2972622 72.9195896 -5.52557592 68.21167867 -4.08984375 62.46875 C1.85015625 62.46875 7.79015625 62.46875 13.91015625 62.46875 C13.18034649 74.1457061 8.61195817 81.56914544 -0.08984375 89.46875 C-11.95571227 97.2285939 -25.33964762 97.76230432 -39.08984375 96.46875 C-50.12616871 93.8421272 -59.57724985 86.6723668 -66.08984375 77.46875 C-72.04056555 66.85743579 -74.6674135 55.82552247 -74.58984375 43.71875 C-74.58412354 42.67251465 -74.57840332 41.6262793 -74.57250977 40.54833984 C-74.270413 27.35983259 -70.69795065 16.70138033 -62.08984375 6.46875 C-61.56777344 5.82421875 -61.04570312 5.1796875 -60.5078125 4.515625 C-45.575215 -12.19725785 -17.49949106 -12.822057 0 0 Z " fill="#F7FAF5" transform="translate(278.08984375,666.53125)"/>
<path d="M0 0 C6.0804029 3.85586525 9.47338921 8.92898139 11.53831482 15.78814697 C12.07366754 18.35292833 12.11976524 20.69860117 12.11352539 23.31933594 C12.11341209 24.91053253 12.11341209 24.91053253 12.11329651 26.53387451 C12.10813522 27.67253967 12.10297394 28.81120483 12.09765625 29.984375 C12.0962413 31.15510559 12.09482635 32.32583618 12.09336853 33.53204346 C12.0877709 37.27138829 12.0752188 41.01067326 12.0625 44.75 C12.0574847 47.28515539 12.05292184 49.82031171 12.04882812 52.35546875 C12.03780223 58.57033557 12.02053919 64.78515763 12 71 C6.39 71 0.78 71 -5 71 C-5.495 66.545 -5.495 66.545 -6 62 C-6.680625 63.0828125 -6.680625 63.0828125 -7.375 64.1875 C-12.64290474 69.83168365 -18.26543436 72.20359258 -26.01342773 72.54492188 C-34.63926577 72.61672906 -40.22024757 71.19179094 -46.8125 65.625 C-52.51134288 58.78638855 -52.7765332 52.6749852 -52 44 C-50.2719412 38.16780156 -45.97254938 34.31783278 -41 31 C-32.37821523 27.29532686 -23.31791163 26.84600163 -14.0625 26.9375 C-13.18787109 26.94201172 -12.31324219 26.94652344 -11.41210938 26.95117188 C-9.27470953 26.96285166 -7.13734537 26.98078311 -5 27 C-5.83046802 19.41814002 -5.83046802 19.41814002 -9.4375 12.875 C-14.24243175 9.35919628 -19.24282392 9.34638592 -25 10 C-29.5108365 12.25541825 -30.71953804 13.43907608 -33 18 C-38.28 18 -43.56 18 -49 18 C-47.89368568 10.25579976 -46.06604 5.95408978 -39.79296875 1.16796875 C-28.23591303 -6.36048367 -12.10111281 -6.61554894 0 0 Z " fill="#F6F9F4" transform="translate(614,690)"/>
<path d="M0 0 C5.41857743 4.22110176 7.88250439 8.97309435 9.68359375 15.52734375 C10.17763663 19.8044564 10.15282481 24.01558124 10.07421875 28.31640625 C10.06855896 29.5008432 10.06289917 30.68528015 10.05706787 31.90560913 C10.03483975 35.65494767 9.98466672 39.40329848 9.93359375 43.15234375 C9.91351132 45.70831944 9.89526362 48.26431025 9.87890625 50.8203125 C9.83501911 57.05636489 9.76608437 63.29168738 9.68359375 69.52734375 C4.40359375 69.52734375 -0.87640625 69.52734375 -6.31640625 69.52734375 C-6.64640625 65.89734375 -6.97640625 62.26734375 -7.31640625 58.52734375 C-8.52296875 60.38359375 -8.52296875 60.38359375 -9.75390625 62.27734375 C-13.32445367 66.92812607 -16.56383874 69.25429976 -22.31640625 70.52734375 C-29.7985728 71.25509247 -38.08233255 72.0071399 -44.70703125 67.859375 C-50.28686675 63.24111309 -53.77238601 58.56803126 -54.56640625 51.2109375 C-54.86457959 45.10770191 -53.91712284 40.52152651 -50.31640625 35.52734375 C-40.97860791 26.18954541 -28.51682623 25.47113557 -15.91210938 25.39331055 C-13.04594906 25.40604445 -10.18162189 25.45418931 -7.31640625 25.52734375 C-7.58511586 19.48137759 -8.24353646 15.29841979 -12.31640625 10.52734375 C-16.74595419 7.7789462 -21.25727327 7.87300794 -26.31640625 8.52734375 C-30.82724275 10.782762 -32.03594429 11.96641983 -34.31640625 16.52734375 C-39.59640625 16.52734375 -44.87640625 16.52734375 -50.31640625 16.52734375 C-50.20008265 10.0132224 -48.632819 7.02624069 -44.203125 2.2890625 C-32.49445216 -8.64388047 -13.12849631 -8.34644707 0 0 Z " fill="#F8FAF6" transform="translate(739.31640625,691.47265625)"/>
<path d="M0 0 C2.6313437 2.90460844 4.10047242 6.1517204 5.6640625 9.71875 C6.38722656 11.36423828 6.38722656 11.36423828 7.125 13.04296875 C7.8675 14.75419922 7.8675 14.75419922 8.625 16.5 C9.12773438 17.64082031 9.63046875 18.78164062 10.1484375 19.95703125 C14.19124095 29.20548753 14.19124095 29.20548753 15 33 C10.58425498 33.61101588 6.16723148 34.21233268 1.75 34.8125 C0.55375 34.97814453 -0.6425 35.14378906 -1.875 35.31445312 C-10.60703075 36.49505932 -19.3499212 37.47911552 -28.11328125 38.3984375 C-42.73464611 39.93679473 -57.32075129 41.71732551 -71.90693665 43.55687332 C-73.97171993 43.81680793 -76.03667193 44.07535969 -78.10168457 44.33346558 C-92.41627246 46.12273558 -106.72577088 47.94055337 -121.01953125 49.890625 C-122.0795787 50.03477341 -123.13962616 50.17892181 -124.23179626 50.32743835 C-129.12225947 50.99385126 -134.01117663 51.6693618 -138.89819336 52.3605957 C-140.60397803 52.59605342 -142.30978699 52.83133525 -144.015625 53.06640625 C-145.15624138 53.2329068 -145.15624138 53.2329068 -146.31990051 53.402771 C-149.77807209 53.87285694 -152.68004387 54.23499344 -156 53 C-155.33097656 52.77038574 -154.66195313 52.54077148 -153.97265625 52.30419922 C-123.71463924 41.91189036 -93.5210674 31.33762946 -63.375 20.625 C-62.46089355 20.30037781 -61.54678711 19.97575562 -60.60498047 19.64129639 C-50.44553646 16.0320323 -40.29710791 12.39371809 -30.1640625 8.7109375 C-29.26432709 8.38396881 -28.36459167 8.05700012 -27.43759155 7.72012329 C-21.23347848 5.46056055 -15.0472166 3.15794231 -8.875 0.8125 C-5.68428189 -0.08922468 -3.29389806 -0.43918641 0 0 Z " fill="#318C53" transform="translate(640,205)"/>
<path d="M0 0 C6.06706573 3.85649129 9.47288231 8.94357347 11.53831482 15.78240967 C12.07874637 18.37823869 12.11972231 20.75885276 12.11352539 23.41113281 C12.11341209 25.03236053 12.11341209 25.03236053 12.11329651 26.68634033 C12.10813522 27.84687927 12.10297394 29.00741821 12.09765625 30.203125 C12.0962413 31.39605164 12.09482635 32.58897827 12.09336853 33.8180542 C12.08777038 37.62872829 12.07521819 41.43934366 12.0625 45.25 C12.05748476 47.83333248 12.0529219 50.41666589 12.04882812 53 C12.03780155 59.33335596 12.02053814 65.66666803 12 72 C6.39 72 0.78 72 -5 72 C-5.0093457 70.55753906 -5.01869141 69.11507812 -5.02832031 67.62890625 C-5.06833015 62.25376017 -5.13412038 56.87917981 -5.20751953 51.50439453 C-5.23566532 49.18252861 -5.25691149 46.86056801 -5.27099609 44.53857422 C-5.29251355 41.19189201 -5.33921124 37.84634051 -5.390625 34.5 C-5.39185364 33.4694751 -5.39308228 32.4389502 -5.39434814 31.37719727 C-5.5256367 24.84951417 -6.51489312 20.56537697 -10 15 C-14.81076984 12.05272123 -20.53305413 12.35777435 -26 13 C-31.01020773 15.32616787 -33.01947624 17.89233347 -35 23 C-36.33553532 27.96047576 -36.22537831 33.01168501 -36.31640625 38.11328125 C-36.33718735 39.08283249 -36.35796844 40.05238373 -36.37937927 41.05131531 C-36.44458941 44.13830707 -36.5036268 47.22538152 -36.5625 50.3125 C-36.60571237 52.40951364 -36.64932752 54.50651903 -36.69335938 56.60351562 C-36.80024151 61.73559307 -36.90158896 66.86775341 -37 72 C-42.28 72 -47.56 72 -53 72 C-53 47.58 -53 23.16 -53 -2 C-47.72 -2 -42.44 -2 -37 -2 C-36.67 1.3 -36.34 4.6 -36 8 C-35.030625 6.9275 -34.06125 5.855 -33.0625 4.75 C-23.94141494 -4.2614127 -11.47496097 -5.74832639 0 0 Z " fill="#F8FAF6" transform="translate(436,689)"/>
<path d="M0 0 C-22.62713518 6.68027878 -45.27450352 12.91125777 -68.23535156 18.34033203 C-71.91473243 19.21826272 -75.58245822 20.13631551 -79.25 21.0625 C-85.34115211 22.59963891 -91.44811228 24.05828143 -97.5625 25.5 C-104.61239198 27.16613304 -111.61875166 28.93820943 -118.609375 30.83984375 C-125.89099266 32.7911616 -133.22394689 34.549114 -140.54125977 36.3605957 C-147.06378837 37.98482044 -153.5456202 39.68757931 -160 41.5625 C-167.80210699 43.79917275 -175.69756933 45.57888428 -183.625 47.3125 C-184.82382812 47.5794165 -186.02265625 47.84633301 -187.2578125 48.12133789 C-201.6819419 51.20656658 -201.6819419 51.20656658 -207.75 49 C-212.62335485 44.66812903 -214.59063782 38.22468295 -216 32 C-216.0288557 30.33358315 -216.03406443 28.66631851 -216 27 C-214.78304443 27.06852173 -214.78304443 27.06852173 -213.54150391 27.13842773 C-199.68180849 27.54282933 -186.16231752 25.35226342 -172.47956085 23.36648941 C-168.89815563 22.84917994 -165.3149224 22.34482475 -161.73193359 21.83862305 C-153.54734857 20.67948408 -145.36570765 19.50038033 -137.1847229 18.31613159 C-135.04142121 18.00599369 -132.89804539 17.696374 -130.75463867 17.38696289 C-118.78582708 15.65919685 -106.8178166 13.92600024 -94.85205078 12.17724609 C-77.92591391 9.70425969 -60.99147034 7.30227201 -44.04516602 4.97167969 C-36.59942664 3.94449961 -29.16121939 2.89285392 -21.73828125 1.7109375 C-20.50754883 1.51540283 -19.27681641 1.31986816 -18.00878906 1.1184082 C-15.8050161 0.7629257 -13.60239402 0.40018366 -11.40136719 0.02807617 C-10.46583008 -0.1242749 -9.53029297 -0.27662598 -8.56640625 -0.43359375 C-7.77177979 -0.56822021 -6.97715332 -0.70284668 -6.15844727 -0.84155273 C-3.86839158 -1.00966111 -2.1804085 -0.68085374 0 0 Z " fill="#216738" transform="translate(523,549)"/>
<path d="M0 0 C5.17603905 3.47644413 8.51127179 7.9441682 10.71875 13.78125 C10.71875 15.10125 10.71875 16.42125 10.71875 17.78125 C5.43875 17.78125 0.15875 17.78125 -5.28125 17.78125 C-6.27125 15.80125 -7.26125 13.82125 -8.28125 11.78125 C-13.19018684 8.18934499 -18.41352833 8.03800526 -24.28125 8.78125 C-28.06490532 10.47528089 -28.06490532 10.47528089 -30.28125 13.78125 C-30.42500422 17.15947416 -30.35661348 19.55515955 -29.28125 22.78125 C-27.60144397 23.64578917 -27.60144397 23.64578917 -25.40625 24.15625 C-24.51292969 24.40503906 -23.61960937 24.65382813 -22.69921875 24.91015625 C-20.03932728 25.58804859 -17.37728315 26.23646479 -14.70703125 26.87109375 C4.48210914 31.51754469 4.48210914 31.51754469 10.78125 39.34375 C12.55497913 45.84742349 12.63730684 52.68112067 10.71875 59.15625 C4.83394611 66.8800551 -1.73947268 70.83110573 -11.28125 72.78125 C-22.62911928 73.97291169 -33.08221871 72.15199097 -42.40234375 65.3828125 C-47.44774548 61.08215822 -48.49841466 57.1568417 -49.28125 50.78125 C-46.50879986 50.64637405 -43.74287912 50.54724193 -40.96875 50.46875 C-40.18306641 50.42685547 -39.39738281 50.38496094 -38.58789062 50.34179688 C-36.38392932 50.29490408 -34.43558841 50.30719161 -32.28125 50.78125 C-30.55078125 53.11328125 -30.55078125 53.11328125 -29.28125 55.78125 C-25.6170747 58.61603427 -22.87052015 59.19137197 -18.28125 59.15625 C-17.270625 59.16398438 -16.26 59.17171875 -15.21875 59.1796875 C-11.59702554 58.68844296 -8.88638899 57.38638899 -6.28125 54.78125 C-5.86805634 50.73323727 -5.86805634 50.73323727 -6.28125 46.78125 C-9.69542153 42.90493923 -15.14817401 42.41381192 -19.96875 41.34375 C-29.35858634 39.25477517 -38.39384343 36.83264244 -45.28125 29.78125 C-48.48998902 24.11247773 -49.11140976 19.02971466 -47.8828125 12.7421875 C-45.84070511 5.87328084 -41.04967737 1.99528272 -35.02734375 -1.54296875 C-24.23663181 -6.609448 -10.43549142 -5.57512555 0 0 Z " fill="#F7FAF5" transform="translate(809.28125,690.21875)"/>
<path d="M0 0 C0.3125 2.25 0.3125 2.25 0 5 C-3.79575873 8.81774102 -7.01418315 9.70983475 -12.26171875 10.5078125 C-13.36576302 10.68269699 -13.36576302 10.68269699 -14.49211121 10.8611145 C-16.12126612 11.11723869 -17.75155947 11.3661961 -19.38275146 11.60900879 C-22.08034307 12.01200247 -24.77380735 12.43661992 -27.46728516 12.86621094 C-32.73418516 13.70285903 -38.00403926 14.51923427 -43.27490234 15.33050537 C-46.92310854 15.89202448 -50.5709624 16.45578786 -54.21875 17.02001953 C-59.70638919 17.86851225 -65.19418631 18.71597205 -70.68212891 19.5625 C-85.8032143 21.89501026 -100.92383117 24.23055183 -116.04412174 26.56820869 C-121.623407 27.43070372 -127.20286554 28.29206621 -132.78246784 29.15250778 C-136.31919599 29.69812353 -139.85578514 30.24463637 -143.39234352 30.79135132 C-145.03029457 31.04437412 -146.66830128 31.29703694 -148.30637169 31.54928589 C-157.4910376 32.9638703 -166.66613857 34.42277753 -175.82907867 35.97251701 C-206.90738891 41.21639981 -206.90738891 41.21639981 -220 34 C-220 33.34 -220 32.68 -220 32 C-204.36523153 28.90584579 -188.68387379 26.26989356 -172.9375 23.8125 C-170.44921717 23.42204786 -167.96093595 23.03158538 -165.47265625 22.64111328 C-122.22974195 15.87283651 -78.93540331 9.43272946 -35.58886719 3.36322021 C-33.07460029 3.01046648 -30.56069206 2.65526012 -28.046875 2.29931641 C-24.39083607 1.78224041 -20.73389089 1.27227622 -17.0758667 0.7694397 C-15.19404372 0.50953582 -13.31306646 0.24353103 -11.43212891 -0.02270508 C-9.79896729 -0.24349731 -9.79896729 -0.24349731 -8.1328125 -0.46875 C-7.20355957 -0.59701172 -6.27430664 -0.72527344 -5.31689453 -0.85742188 C-3 -1 -3 -1 0 0 Z " fill="#216838" transform="translate(768,513)"/>
<path d="M0 0 C5.61 0 11.22 0 17 0 C17 6.27 17 12.54 17 19 C22.28 19 27.56 19 33 19 C33 23.62 33 28.24 33 33 C27.72 33 22.44 33 17 33 C17.09359027 38.76607392 17.19969716 44.53173072 17.31738281 50.29736328 C17.35565327 52.2585622 17.39050954 54.21983084 17.421875 56.18115234 C17.4675674 59.00122997 17.525555 61.82082838 17.5859375 64.640625 C17.59748871 65.51680481 17.60903992 66.39298462 17.62094116 67.29571533 C17.64081085 68.11626404 17.66068054 68.93681274 17.68115234 69.78222656 C17.69447601 70.50170471 17.70779968 71.22118286 17.7215271 71.96246338 C18.04669514 74.34166003 18.74607346 75.95879833 20 78 C22.56893838 79.28446919 24.76576337 79.32977144 27.625 79.5625 C29.39875 79.706875 31.1725 79.85125 33 80 C33 84.62 33 89.24 33 94 C12.66149231 94.9084197 12.66149231 94.9084197 5.35546875 88.57421875 C1.50245466 84.27705318 -0.25783987 79.82929542 -0.22705078 74.11791992 C-0.22689972 73.17732224 -0.22674866 72.23672455 -0.22659302 71.2676239 C-0.21627045 70.2653627 -0.20594788 69.2631015 -0.1953125 68.23046875 C-0.1924826 67.19432938 -0.18965271 66.15819 -0.18673706 65.09065247 C-0.17556454 61.78948293 -0.15046505 58.48858719 -0.125 55.1875 C-0.11496643 52.94596747 -0.10584124 50.70443067 -0.09765625 48.46289062 C-0.07563474 42.97515533 -0.04112476 37.48762405 0 32 C-3.63 32 -7.26 32 -11 32 C-11 27.71 -11 23.42 -11 19 C-7.37 19 -3.74 19 0 19 C0 12.73 0 6.46 0 0 Z " fill="#F7F9F4" transform="translate(468,668)"/>
<path d="M0 0 C5.61 0 11.22 0 17 0 C17 6.93 17 13.86 17 21 C22.28 21 27.56 21 33 21 C33 24.96 33 28.92 33 33 C27.72 33 22.44 33 17 33 C17.0689398 38.74790317 17.15693778 44.49508328 17.26245117 50.24243164 C17.29566354 52.19677702 17.32370695 54.15121747 17.34643555 56.10571289 C17.38004933 58.91854282 17.43236854 61.73050447 17.48828125 64.54296875 C17.49467117 65.41398727 17.5010611 66.2850058 17.50764465 67.18241882 C17.62173936 71.91167494 17.90728099 75.17261211 21 79 C23.43387753 80.21693876 25.41838846 80.31959896 28.125 80.5625 C29.73375 80.706875 31.3425 80.85125 33 81 C33 85.29 33 89.58 33 94 C29.99900412 94.10890711 27.00203622 94.18773555 24 94.25 C23.16082031 94.28351563 22.32164062 94.31703125 21.45703125 94.3515625 C15.44233243 94.44481364 10.98388211 93.4756218 6 90 C4.16015625 88.03515625 4.16015625 88.03515625 3.0625 86.0625 C2.68222656 85.41410156 2.30195312 84.76570312 1.91015625 84.09765625 C-0.46506088 78.62344338 -0.13067944 72.95837047 -0.09765625 67.10546875 C-0.0962413 66.15811356 -0.09482635 65.21075836 -0.09336853 64.23469543 C-0.08778611 61.21893105 -0.07523682 58.20324182 -0.0625 55.1875 C-0.05748273 53.13867295 -0.05292022 51.08984473 -0.04882812 49.04101562 C-0.03782243 44.02731494 -0.02056988 39.0136702 0 34 C-3.63 34 -7.26 34 -11 34 C-11 29.38 -11 24.76 -11 20 C-7.37 20 -3.74 20 0 20 C0 13.4 0 6.8 0 0 Z " fill="#F7FAF4" transform="translate(643,667)"/>
<path d="M0 0 C0 5.28 0 10.56 0 16 C-3.2484375 16.12375 -3.2484375 16.12375 -6.5625 16.25 C-12.56992426 16.69297169 -16.33167916 17.16160287 -21 21 C-23.93521198 25.69633917 -25.09510879 30.01398007 -25.20532227 35.49316406 C-25.22526749 36.37377502 -25.24521271 37.25438599 -25.26576233 38.16168213 C-25.29083107 39.57438385 -25.29083107 39.57438385 -25.31640625 41.015625 C-25.33718735 41.98659119 -25.35796844 42.95755737 -25.37937927 43.95794678 C-25.44468862 47.05522685 -25.50367323 50.15259068 -25.5625 53.25 C-25.60570292 55.35157111 -25.64931778 57.4531338 -25.69335938 59.5546875 C-25.80035098 64.70303948 -25.9016709 69.85147558 -26 75 C-31.28 75 -36.56 75 -42 75 C-42 50.91 -42 26.82 -42 2 C-37.05 2 -32.1 2 -27 2 C-26.67 5.96 -26.34 9.92 -26 14 C-25.46375 12.948125 -24.9275 11.89625 -24.375 10.8125 C-21.50934063 5.8453571 -18.05845304 2.81561347 -12.6875 0.6875 C-8.32942699 -0.12502209 -4.42768592 -0.13623649 0 0 Z " fill="#F9FBF7" transform="translate(556,686)"/>
<path d="M0 0 C5.68268218 3.25379383 7.91866974 8.25399399 9.625 14.375 C10.27428298 22.5121179 11.03598294 32.17652089 6.625 39.375 C3.26938506 43.02578478 -0.13726942 46.18646193 -5.203125 46.61328125 C-14.35580406 46.81179826 -14.35580406 46.81179826 -18.875 44.875 C-26.22035813 37.52964187 -27.67130608 30.69312013 -27.69189453 20.59448242 C-27.56874924 13.89066553 -26.47258575 7.85270723 -21.87890625 2.6953125 C-15.73555636 -2.72799389 -7.38188608 -3.33777588 0 0 Z " fill="#1F5C37" transform="translate(345.375,701.625)"/>
<path d="M0 0 C1.56582928 8.70773716 3.12776336 17.41616954 4.6875 26.125 C5.03205734 28.04829132 5.03205734 28.04829132 5.38357544 30.01043701 C8.1807314 45.63750491 10.96944281 61.26345353 13.46557617 76.94189453 C14.55406098 83.69422624 15.93114475 90.32668347 17.51391602 96.98193359 C17.96880599 99.80631828 17.96560845 101.35237701 17 104 C9.9052189 88.80910898 3.16538545 73.51804357 -3.18127441 58.00054932 C-5.19999589 53.06781978 -7.22488119 48.13761252 -9.24806213 43.20671082 C-11.07781361 38.74662999 -12.90615705 34.28598395 -14.73120117 29.82397461 C-15.07208771 28.99126541 -15.41297424 28.15855621 -15.76419067 27.3006134 C-16.4109544 25.72061813 -17.05711876 24.14037734 -17.7026062 22.55986023 C-19.25699759 18.73781256 -19.25699759 18.73781256 -21 15 C-21.4375 11.625 -21.4375 11.625 -21 8 C-16.17017672 3.17017672 -6.76474622 0 0 0 Z " fill="#2F7F4C" transform="translate(256,337)"/>
<path d="M0 0 C5.39318842 2.29805725 8.65198031 6.4033668 11.59765625 11.3671875 C13.54693219 17.21501531 13.59147136 23.95504556 11.16015625 29.6796875 C8.37421467 34.3712905 4.64992651 37.35360153 -0.40234375 39.3671875 C-6.62698165 40.42491937 -12.41412314 40.43141562 -17.96484375 37.1796875 C-22.19061919 34.03037275 -25.41716821 30.27124404 -27.40234375 25.3671875 C-28.02660231 19.34236653 -28.31007567 13.48522864 -25.90234375 7.8671875 C-25.07734375 7.0421875 -24.25234375 6.2171875 -23.40234375 5.3671875 C-22.87769531 4.81289063 -22.35304688 4.25859375 -21.8125 3.6875 C-15.53679302 -2.07075968 -7.9970794 -2.10654775 0 0 Z " fill="#25693C" transform="translate(386.40234375,399.6328125)"/>
<path d="M0 0 C6.2163583 3.80062107 9.98389295 9.06886635 12.26953125 15.92578125 C12.8072327 22.27065841 11.98361538 26.67408795 8.26953125 31.92578125 C4.19737464 36.28138264 0.94105689 38.54489169 -5.02734375 39.1640625 C-12.1024457 39.37811813 -17.236759 38.20210462 -22.48828125 33.27734375 C-27.66800537 27.54711755 -29.27136402 22.4146989 -29.10546875 14.7109375 C-28.50004941 10.21443763 -26.69743077 7.2883382 -23.73046875 3.92578125 C-23.26898437 3.39726562 -22.8075 2.86875 -22.33203125 2.32421875 C-16.44258942 -3.0271015 -7.07915606 -2.7850757 0 0 Z " fill="#25693C" transform="translate(675.73046875,364.07421875)"/>
<path d="M0 0 C2.8779309 1.43896545 3.27321164 3.33295645 4.6171875 6.23828125 C5.13522949 7.35340088 5.65327148 8.46852051 6.18701172 9.61743164 C6.75014692 10.84890516 7.31279573 12.0806012 7.875 13.3125 C8.4623489 14.58913592 9.04975208 15.86574686 9.63720703 17.14233398 C15.09915448 29.05685162 20.26410014 41.09491033 25.37402344 53.1640625 C28.07964003 59.55215128 30.80728439 65.9308296 33.53677368 72.30874634 C34.49663924 74.55463651 35.45296463 76.80201028 36.40893555 79.04956055 C39.33472312 85.91091911 42.30560804 92.73808983 45.48046875 99.48828125 C60.62296483 131.87433137 60.62296483 131.87433137 57 144 C46.09261584 118.79839841 35.69502678 93.42145553 25.6875 67.84765625 C23.13237852 61.32454892 20.54233696 54.81589256 17.9375 48.3125 C17.5338623 47.3028418 17.13022461 46.29318359 16.71435547 45.25292969 C14.57921653 39.91806796 12.42778349 34.59032461 10.2578125 29.26953125 C9.80672119 28.15731201 9.35562988 27.04509277 8.89086914 25.89916992 C8.03586533 23.79175288 7.17605528 21.68627611 6.31030273 19.58325195 C3.70927739 13.15620916 1.67036353 6.72915528 0 0 Z " fill="#216A3A" transform="translate(235,400)"/>
<path d="M0 0 C0.93134766 0.00902344 1.86269531 0.01804687 2.82226562 0.02734375 C5.1109436 0.05081737 7.39908672 0.08365271 9.6875 0.125 C9.86325086 6.59398363 9.45957748 10.72643039 5.6875 16.125 C2.42059682 19.57102841 -0.76273527 21.90027497 -5.6171875 22.328125 C-14.48356479 22.48982185 -14.48356479 22.48982185 -18.3125 19.125 C-20.8415797 16.09010436 -21.3125 14.60612565 -21.3125 10.625 C-19.94133802 5.82593307 -17.62475937 3.41255868 -13.28515625 0.99609375 C-8.86303045 -0.299746 -4.58010927 -0.08415748 0 0 Z " fill="#1D5933" transform="translate(599.3125,727.875)"/>
<path d="M0 0 C0.58243451 10.91525424 0.58243451 10.91525424 -3 16 C-7.60281232 20.62457502 -11.12888276 23.11743283 -17.8125 23.3125 C-22.83721682 23.27576961 -25.23647506 22.28102174 -29 19 C-30.74008654 15.51982692 -30.58464868 11.79693185 -30 8 C-27.14987968 4.17269557 -24.49808363 2.39554392 -20 1 C-16.7551398 0.62451026 -13.51318233 0.49241586 -10.25 0.375 C-9.37472656 0.33632813 -8.49945312 0.29765625 -7.59765625 0.2578125 C-1.65876116 0 -1.65876116 0 0 0 Z " fill="#1E5934" transform="translate(732,727)"/>
<path d="M0 0 C1.03693981 -0.01372509 2.07387961 -0.02745017 3.14224184 -0.04159117 C4.9888697 -0.06751238 6.83539566 -0.10493002 8.68146288 -0.1572957 C13.24790606 -0.21066643 15.48957385 0.18559662 18.95817947 3.11106873 C-32.22019641 3.15680205 -83.39857024 3.19206547 -134.57696252 3.21319938 C-140.61293736 3.21570093 -146.64891216 3.21828956 -152.68488693 3.22093201 C-154.48744071 3.22171894 -154.48744071 3.22171894 -156.32640971 3.22252177 C-175.80870904 3.23123494 -195.29099661 3.24700991 -214.77328895 3.26537432 C-234.74965709 3.28404802 -254.72601905 3.29518008 -274.70239556 3.29924572 C-287.03839645 3.30199604 -299.37436414 3.31069648 -311.71035482 3.32690166 C-320.15859822 3.33743736 -328.60682434 3.34067714 -337.05507384 3.33807148 C-341.93623669 3.33678484 -346.81734134 3.33881836 -351.69849396 3.34947968 C-356.16061616 3.35915511 -360.62264058 3.35974113 -365.08476712 3.35286652 C-366.70525155 3.35201586 -368.32574188 3.35460113 -369.94621454 3.36083509 C-372.13677922 3.36877711 -374.32698361 3.36458711 -376.51754189 3.35716438 C-378.3481736 3.35830354 -378.3481736 3.35830354 -380.21578777 3.35946572 C-383.04182053 3.11106873 -383.04182053 3.11106873 -385.04182053 1.11106873 C-337.26133447 0.98333118 -289.48084759 0.8559032 -241.70035961 0.72888646 C-236.05067079 0.7138674 -230.40098198 0.6988458 -224.75129318 0.68382263 C-223.06427085 0.67933671 -223.06427085 0.67933671 -221.34316726 0.67476016 C-203.16769034 0.62642411 -184.99221398 0.57788221 -166.81673782 0.52926332 C-148.14656727 0.47932575 -129.47639615 0.42961152 -110.80622447 0.38010168 C-99.29945118 0.3495809 -87.79267838 0.31888896 -76.28590615 0.28797328 C-68.37949454 0.26674758 -60.47308238 0.24574015 -52.56666975 0.22489893 C-48.01519499 0.21289502 -43.46372052 0.2008001 -38.9122467 0.18844414 C-38.05580383 0.1861371 -37.19936096 0.18383006 -36.31696527 0.18145311 C-34.63257916 0.17687927 -32.94819331 0.17221253 -31.26380773 0.16744769 C-27.32962636 0.15656526 -23.39546528 0.14768932 -19.46127009 0.14403534 C-12.97313603 0.13676587 -6.48742063 0.1126355 0 0 Z " fill="#288D51" transform="translate(704.041820526123,123.88893127441406)"/>
<path d="M0 0 C-29.56946995 10.51831983 -59.17760957 20.91723267 -88.83966064 31.17160034 C-94.91041773 33.27181511 -100.97423076 35.39113542 -107.03515625 37.51953125 C-118.66839291 41.60141559 -130.34325672 45.55998966 -142.01733398 49.52319336 C-144.81782406 50.47428036 -147.61790587 51.42656242 -150.41796875 52.37890625 C-151.31635468 52.68349762 -152.2147406 52.98808899 -153.14035034 53.3019104 C-157.43241739 54.76199412 -161.71175632 56.24736176 -165.97119141 57.80029297 C-166.74666824 58.08146469 -167.52214508 58.36263641 -168.32112122 58.65232849 C-169.75884079 59.176251 -171.19419051 59.70674596 -172.62651062 60.24525452 C-176.20706246 61.54857075 -179.18244453 62.29732311 -183 62 C-178.7330562 59.79587939 -174.3216673 58.19840676 -169.8125 56.5625 C-168.86125244 56.21687012 -167.91000488 55.87124023 -166.92993164 55.51513672 C-156.91155561 51.91190481 -146.80915076 48.56987503 -136.70336914 45.22241211 C-127.20115242 42.07396446 -117.71592547 38.8810164 -108.25 35.625 C-107.10394287 35.2326416 -105.95788574 34.8402832 -104.77709961 34.43603516 C-99.39203354 32.57786105 -94.0512496 30.65007768 -88.74609375 28.57421875 C-81.58296044 25.79149647 -74.3227567 23.3399424 -67.0300293 20.9230957 C-64.77564219 20.17527358 -62.52351493 19.42090112 -60.27148438 18.66601562 C-58.83346175 18.18711423 -57.39531543 17.70858406 -55.95703125 17.23046875 C-54.95093559 16.8930793 -54.95093559 16.8930793 -53.92451477 16.5488739 C-49.23004845 15 -49.23004845 15 -47 15 C-47 14.34 -47 13.68 -47 13 C-45.21142578 12.6596875 -45.21142578 12.6596875 -43.38671875 12.3125 C-36.66034338 10.8168722 -30.27283893 8.36395047 -23.8125 6 C-22.55552904 5.54374567 -21.29836856 5.08801312 -20.04101562 4.6328125 C-17.72921243 3.79575896 -15.41830744 2.95621711 -13.10864258 2.11328125 C-12.08279053 1.74589844 -11.05693848 1.37851563 -10 1 C-8.96061279 0.60167969 -7.92122559 0.20335937 -6.8503418 -0.20703125 C-3.88492029 -1.03201532 -2.84204892 -0.85730156 0 0 Z " fill="#359358" transform="translate(574,209)"/>
<path d="M0 0 C5.61 0 11.22 0 17 0 C17 0.33 17 0.66 17 1 C12.05 1 7.1 1 2 1 C2.11806197 6.66014162 2.24229672 12.32010083 2.37231445 17.97998047 C2.41569001 19.90637504 2.45736314 21.83280871 2.49731445 23.75927734 C2.55495362 26.52453408 2.61866616 29.2895935 2.68359375 32.0546875 C2.70030624 32.9193161 2.71701874 33.7839447 2.73423767 34.67477417 C2.72159896 38.97395852 2.72159896 38.97395852 4 43 C6.98037463 43.39338548 6.98037463 43.39338548 10.4375 43.5 C16.77841561 43.77841561 16.77841561 43.77841561 19 46 C19.14497985 48.58064129 19.18677545 51.04943884 19.125 53.625 C19.11597656 54.33140625 19.10695313 55.0378125 19.09765625 55.765625 C19.07407603 57.51056098 19.03820461 59.25532295 19 61 C18.34 61 17.68 61 17 61 C17 56.38 17 51.76 17 47 C15.288125 47.0825 13.57625 47.165 11.8125 47.25 C7.90852076 47.25502443 6.31862766 47.18480404 2.875 45.1875 C0.3018535 42.18549576 -0.12557992 39.80883606 -0.11352539 35.98754883 C-0.11344986 35.18694534 -0.11337433 34.38634186 -0.11329651 33.56147766 C-0.10813522 32.70201035 -0.10297394 31.84254303 -0.09765625 30.95703125 C-0.0962413 30.0734343 -0.09482635 29.18983734 -0.09336853 28.27946472 C-0.08777069 25.45710872 -0.07521861 22.63483203 -0.0625 19.8125 C-0.05748472 17.89908969 -0.05292186 15.98567813 -0.04882812 14.07226562 C-0.03780197 9.38147986 -0.02053883 4.69075337 0 0 Z " fill="#114922" transform="translate(660,701)"/>
<path d="M0 0 C2.625 0.375 2.625 0.375 5 1 C5 1.66 5 2.32 5 3 C5.825 2.98839844 6.65 2.97679687 7.5 2.96484375 C14.27165784 2.91194017 20.99131966 3.03127001 27.75 3.4375 C28.4409375 3.47673584 29.131875 3.51597168 29.84375 3.55639648 C34.75210639 3.87605319 34.75210639 3.87605319 37 5 C38.59262066 5.15175549 40.19064856 5.24900325 41.7890625 5.31640625 C42.73007812 5.35830078 43.67109375 5.40019531 44.640625 5.44335938 C45.62546875 5.48267578 46.6103125 5.52199219 47.625 5.5625 C48.61757813 5.60568359 49.61015625 5.64886719 50.6328125 5.69335938 C53.08839838 5.79961069 55.54408703 5.90164964 58 6 C58 6.33 58 6.66 58 7 C42.13281897 7.28694244 26.3456288 7.55212627 10.5625 5.625 C9.51650635 5.49891357 8.4705127 5.37282715 7.39282227 5.24291992 C0.27925487 4.27925487 0.27925487 4.27925487 -2 2 C-1.34 1.34 -0.68 0.68 0 0 Z " fill="#154522" transform="translate(267,881)"/>
<path d="M0 0 C0.66 0.33 1.32 0.66 2 1 C0.68 3.31 -0.64 5.62 -2 8 C-1.34 8.33 -0.68 8.66 0 9 C-0.24665405 10.2219104 -0.24665405 10.2219104 -0.49829102 11.46850586 C-1.07189932 15.50609426 -1.08829211 19.43899165 -1.02734375 23.50390625 C-1.0147037 25.1477844 -1.00234229 26.79166472 -0.99023438 28.43554688 C-0.96539139 31.00519685 -0.93734153 33.57473215 -0.90405273 36.14428711 C-0.87379877 38.63916745 -0.85606721 41.13390073 -0.83984375 43.62890625 C-0.82638412 44.39360733 -0.8129245 45.15830841 -0.79905701 45.94618225 C-0.77964993 50.08764074 -1.1357222 53.27742112 -3 57 C-3.33 57 -3.66 57 -4 57 C-4.10167676 50.00753237 -4.17158171 43.01525642 -4.21972656 36.0222168 C-4.23980363 33.64486568 -4.26707113 31.2675637 -4.30175781 28.89038086 C-4.35044614 25.46716155 -4.37300853 22.04459694 -4.390625 18.62109375 C-4.41127014 17.56353378 -4.43191528 16.50597382 -4.45318604 15.41636658 C-4.45511209 9.03807224 -3.7236886 5.22798149 0 0 Z " fill="#124821" transform="translate(404,705)"/>
<path d="M0 0 C0.84152231 2.43106446 1.00819041 3.9521233 0.5703125 6.51171875 C-1.30683343 17.99316614 -2.19489911 30.72543869 1 42 C-1 41 -1 41 -1.8515625 38.91015625 C-5.09143334 26.9815409 -6.26759538 12.54504065 -1 1 C-0.67 0.67 -0.34 0.34 0 0 Z " fill="#1D5630" transform="translate(226,690)"/>
<path d="M0 0 C0.33 0 0.66 0 1 0 C1.16783252 6.53263301 1.32779476 13.06542405 1.48217773 19.59838867 C1.53568392 21.82271736 1.59101963 24.0470028 1.64819336 26.27124023 C1.7298646 29.46067982 1.80504388 32.65021499 1.87890625 35.83984375 C1.90594131 36.84087631 1.93297638 37.84190887 1.96083069 38.87327576 C1.98092697 39.79415482 2.00102325 40.71503387 2.02172852 41.66381836 C2.04171402 42.47878281 2.06169952 43.29374725 2.08229065 44.13340759 C2 46 2 46 1 47 C-0.34267413 47.08631874 -1.68974322 47.10706473 -3.03515625 47.09765625 C-3.84404297 47.09443359 -4.65292969 47.09121094 -5.48632812 47.08789062 C-6.33646484 47.07951172 -7.18660156 47.07113281 -8.0625 47.0625 C-8.91650391 47.05798828 -9.77050781 47.05347656 -10.65039062 47.04882812 C-12.76695663 47.03700373 -14.88348685 47.01906769 -17 47 C-17 46.01 -17 45.02 -17 44 C-11.39 44 -5.78 44 0 44 C0 29.48 0 14.96 0 0 Z " fill="#467758" transform="translate(530,717)"/>
<path d="M0 0 C-9.89818065 3.39120276 -19.68250744 5.41590013 -30 7 C-30.84304688 7.1340625 -31.68609375 7.268125 -32.5546875 7.40625 C-39.64867327 8.36996128 -46.8576996 8.08469131 -54 8 C-54 7.67 -54 7.34 -54 7 C-50.7 7 -47.4 7 -44 7 C-44 6.34 -44 5.68 -44 5 C-38.39 5 -32.78 5 -27 5 C-27 4.34 -27 3.68 -27 3 C-23.01803543 1.94595055 -20.01804691 2.15901344 -16 3 C-16 2.34 -16 1.68 -16 1 C-15.39671875 0.93941406 -14.7934375 0.87882813 -14.171875 0.81640625 C-12.97304688 0.69072266 -12.97304688 0.69072266 -11.75 0.5625 C-10.96109375 0.48128906 -10.1721875 0.40007813 -9.359375 0.31640625 C-7.01956386 0.05958718 -7.01956386 0.05958718 -4.890625 -0.59765625 C-3 -1 -3 -1 0 0 Z " fill="#11431E" transform="translate(781,879)"/>
<path d="M0 0 C6.04358985 -0.32248404 10.80745507 -0.54612824 16 3 C18.44621173 5.60929251 19 6.37031224 19 10 C24.28 10 29.56 10 35 10 C34.505 7.03 34.505 7.03 34 4 C34.66 4.33 35.32 4.66 36 5 C36.04254356 6.99954746 36.04080783 9.00041636 36 11 C35 12 35 12 31.40234375 12.09765625 C29.91403133 12.0909822 28.42573568 12.07902183 26.9375 12.0625 C25.79958008 12.05573242 25.79958008 12.05573242 24.63867188 12.04882812 C22.75908129 12.0370068 20.87953101 12.01907078 19 12 C18.0234375 10.20963542 17.046875 8.41927083 16.0703125 6.62890625 C15.08589976 4.83381685 15.08589976 4.83381685 13 4 C10.63049479 3.61076473 8.2542428 3.2619422 5.875 2.9375 C3.95300781 2.67259766 3.95300781 2.67259766 1.9921875 2.40234375 C1.00476563 2.26957031 0.01734375 2.13679687 -1 2 C-0.67 1.34 -0.34 0.68 0 0 Z " fill="#0F4820" transform="translate(785,698)"/>
<path d="M0 0 C0.33 0 0.66 0 1 0 C2.55176497 10.47441355 1.91403215 20.38921923 0.625 30.875 C0.49867188 31.98875 0.37234375 33.1025 0.2421875 34.25 C0.11328125 35.31992187 -0.015625 36.38984375 -0.1484375 37.4921875 C-0.26364746 38.45495605 -0.37885742 39.41772461 -0.49755859 40.40966797 C-1 43 -1 43 -3 47 C-3 42.05 -3 37.1 -3 32 C-2.34 32 -1.68 32 -1 32 C-1.01160156 31.36578125 -1.02320313 30.7315625 -1.03515625 30.078125 C-1.13229877 20.03081267 -0.55495361 10.02880453 0 0 Z " fill="#19542C" transform="translate(897,701)"/>
<path d="M0 0 C1.95803507 -0.05389087 3.91648909 -0.09274217 5.875 -0.125 C7.51082031 -0.15980469 7.51082031 -0.15980469 9.1796875 -0.1953125 C12 0 12 0 14 2 C14.14497985 4.58064129 14.18677545 7.04943884 14.125 9.625 C14.11597656 10.33140625 14.10695313 11.0378125 14.09765625 11.765625 C14.07407603 13.51056098 14.03820461 15.25532295 14 17 C13.34 17 12.68 17 12 17 C12 12.38 12 7.76 12 3 C8.37 3 4.74 3 1 3 C0.67 2.01 0.34 1.02 0 0 Z " fill="#174E28" transform="translate(665,745)"/>
<path d="M0 0 C0 0.66 0 1.32 0 2 C-1.19625 2 -2.3925 2 -3.625 2 C-5.9041167 2.15857635 -5.9041167 2.15857635 -8 3 C-9.29547338 4.86366605 -9.29547338 4.86366605 -10.375 7.0625 C-11.75 9.25390625 -11.75 9.25390625 -14 11 C-19.89577709 12.09546052 -26.06080288 11.44824129 -32 11 C-32 10.67 -32 10.34 -32 10 C-26.39 10 -20.78 10 -15 10 C-14.67 8.35 -14.34 6.7 -14 5 C-9.17480602 0.54597479 -6.50463874 -0.12045627 0 0 Z " fill="#104820" transform="translate(720,699)"/>
<path d="M0 0 C1.00224609 -0.020625 2.00449219 -0.04125 3.03710938 -0.0625 C4.00326172 -0.06765625 4.96941406 -0.0728125 5.96484375 -0.078125 C6.84648193 -0.0874707 7.72812012 -0.09681641 8.63647461 -0.10644531 C11.52217708 0.31753835 12.89801488 1.34542909 15.0625 3.25 C10.60422074 3.3078304 6.1460372 3.34353855 1.6875 3.375 C0.41648437 3.39175781 -0.85453125 3.40851563 -2.1640625 3.42578125 C-3.37578125 3.43222656 -4.5875 3.43867187 -5.8359375 3.4453125 C-6.95661621 3.45578613 -8.07729492 3.46625977 -9.23193359 3.47705078 C-11.9375 3.25 -11.9375 3.25 -13.9375 1.25 C-9.35736984 -0.27671005 -4.79757061 0.02458717 0 0 Z " fill="#409561" transform="translate(707.9375,123.75)"/>
<path d="M0 0 C2.625 0.375 2.625 0.375 5 1 C5 1.66 5 2.32 5 3 C9.62 3 14.24 3 19 3 C18.67 3.99 18.34 4.98 18 6 C15.04029545 5.71897755 12.082712 5.4257082 9.125 5.125 C8.28324219 5.04636719 7.44148438 4.96773437 6.57421875 4.88671875 C5.76855469 4.80292969 4.96289062 4.71914063 4.1328125 4.6328125 C3.38918457 4.55949707 2.64555664 4.48618164 1.87939453 4.41064453 C0 4 0 4 -2 2 C-1.34 1.34 -0.68 0.68 0 0 Z " fill="#2A5C3A" transform="translate(267,881)"/>
<path d="M0 0 C3.53714376 0.36940128 5.84719697 1.19478421 8.73046875 3.28515625 C10.66796875 5.72265625 10.66796875 5.72265625 11.73046875 8.28515625 C11.40046875 9.60515625 11.07046875 10.92515625 10.73046875 12.28515625 C9.41046875 9.64515625 8.09046875 7.00515625 6.73046875 4.28515625 C5.74046875 4.28515625 4.75046875 4.28515625 3.73046875 4.28515625 C3.73046875 3.62515625 3.73046875 2.96515625 3.73046875 2.28515625 C2.96734375 2.49140625 2.20421875 2.69765625 1.41796875 2.91015625 C-1.26953125 3.28515625 -1.26953125 3.28515625 -4.26953125 1.28515625 C-4.59953125 1.94515625 -4.92953125 2.60515625 -5.26953125 3.28515625 C-7.24953125 3.28515625 -9.22953125 3.28515625 -11.26953125 3.28515625 C-8.08505207 -0.74070706 -4.81158666 -0.14619088 0 0 Z " fill="#154721" transform="translate(418.26953125,700.71484375)"/>
<path d="M0 0 C0.66 0.33 1.32 0.66 2 1 C2.33 2.98 2.66 4.96 3 7 C-2.94 7 -8.88 7 -15 7 C-14.67 5.68 -14.34 4.36 -14 3 C-14 3.66 -14 4.32 -14 5 C-9.05 5 -4.1 5 1 5 C0.67 3.35 0.34 1.7 0 0 Z " fill="#DDE7E1" transform="translate(289,686)"/>
<path d="M0 0 C5.625 -0.25 5.625 -0.25 9 2 C11.04869074 2.44429438 13.11454293 2.81294195 15.1875 3.125 C16.81751953 3.37636719 16.81751953 3.37636719 18.48046875 3.6328125 C19.72763672 3.81457031 19.72763672 3.81457031 21 4 C21 4.66 21 5.32 21 6 C14.12020672 5.57550212 7.40044223 4.70240894 1 2 C0.67 1.34 0.34 0.68 0 0 Z " fill="#174925" transform="translate(238,876)"/>
<path d="M0 0 C0.33 0 0.66 0 1 0 C1 4.62 1 9.24 1 14 C-4.28 14 -9.56 14 -15 14 C-15 13.67 -15 13.34 -15 13 C-8.565 12.505 -8.565 12.505 -2 12 C-1.34 8.04 -0.68 4.08 0 0 Z " fill="#CDDBD2" transform="translate(500,748)"/>
<path d="M0 0 C2.64 0 5.28 0 8 0 C8 0.66 8 1.32 8 2 C8.66 2.061875 9.32 2.12375 10 2.1875 C14.18657836 3.32136497 17.42550992 5.59631064 21 8 C20.67 8.66 20.34 9.32 20 10 C18.9275 9.2575 17.855 8.515 16.75 7.75 C11.53032551 4.45484578 5.8812497 2.75457283 0 1 C0 0.67 0 0.34 0 0 Z " fill="#134822" transform="translate(797,717)"/>
<path d="M0 0 C5.94 0 11.88 0 18 0 C18 0.66 18 1.32 18 2 C9.585 2.495 9.585 2.495 1 3 C0.67 2.01 0.34 1.02 0 0 Z " fill="#154C25" transform="translate(274,693)"/>
<path d="M0 0 C0.66 0.33 1.32 0.66 2 1 C-2.95 5.95 -7.9 10.9 -13 16 C-13 11.93645091 -11.47015238 10.94829419 -8.75 8 C-7.96109375 7.13375 -7.1721875 6.2675 -6.359375 5.375 C-4.3351828 3.33740256 -2.34982916 1.63841299 0 0 Z " fill="#0D4C25" transform="translate(467,320)"/>
<path d="M0 0 C5.61 0 11.22 0 17 0 C17 0.66 17 1.32 17 2 C14.54203147 2.19436491 12.08390706 2.3807742 9.625 2.5625 C8.92632812 2.61857422 8.22765625 2.67464844 7.5078125 2.73242188 C2.2265625 3.11328125 2.2265625 3.11328125 0 2 C0 1.34 0 0.68 0 0 Z " fill="#165129" transform="translate(383,762)"/>
<path d="M0 0 C0.33 0 0.66 0 1 0 C1.22731216 6.93302093 0.42002108 13.2168636 -1 20 C-1.33 20 -1.66 20 -2 20 C-2 15.05 -2 10.1 -2 5 C-1.34 5 -0.68 5 0 5 C0 3.35 0 1.7 0 0 Z " fill="#10471E" transform="translate(896,728)"/>
<path d="M0 0 C0.33 0 0.66 0 1 0 C1 5.61 1 11.22 1 17 C0.34 17.33 -0.32 17.66 -1 18 C-2.10228696 13.59085217 -2.07654536 9.51617599 -2 5 C-1.67 5 -1.34 5 -1 5 C-0.67 3.35 -0.34 1.7 0 0 Z " fill="#308551" transform="translate(127,287)"/>
<path d="M0 0 C10.395 0.99 10.395 0.99 21 2 C21 2.33 21 2.66 21 3 C16.71 3.66 12.42 4.32 8 5 C7.67 4.01 7.34 3.02 7 2 C4.69 1.67 2.38 1.34 0 1 C0 0.67 0 0.34 0 0 Z " fill="#0D421A" transform="translate(236,762)"/>
<path d="M0 0 C0.33 0 0.66 0 1 0 C1.06058594 0.83144531 1.12117188 1.66289063 1.18359375 2.51953125 C1.26738281 3.60621094 1.35117188 4.69289063 1.4375 5.8125 C1.51871094 6.89144531 1.59992188 7.97039063 1.68359375 9.08203125 C1.90212461 12.05989905 1.90212461 12.05989905 3 15 C2.91538508 16.73324119 2.76395645 18.46392812 2.5625 20.1875 C2.46066406 21.08855469 2.35882813 21.98960937 2.25390625 22.91796875 C2.17011719 23.60503906 2.08632812 24.29210937 2 25 C1.67 25 1.34 25 1 25 C0.05779874 19.47291389 -0.12116149 14.16241648 -0.0625 8.5625 C-0.05798828 7.73556641 -0.05347656 6.90863281 -0.04882812 6.05664062 C-0.03715811 4.03772854 -0.01922718 2.01885426 0 0 Z " fill="#093E15" transform="translate(126,708)"/>
<path d="M0 0 C-2.68092691 2.68092691 -4.39167363 2.38670257 -8.125 2.625 C-9.22070312 2.69976562 -10.31640625 2.77453125 -11.4453125 2.8515625 C-12.28835938 2.90054688 -13.13140625 2.94953125 -14 3 C-14 2.01 -14 1.02 -14 0 C-9.02936879 -0.91297308 -4.97063121 -0.91297308 0 0 Z " fill="#308C52" transform="translate(284,127)"/>
<path d="M0 0 C1.16144531 0.00902344 2.32289063 0.01804687 3.51953125 0.02734375 C4.39996094 0.03894531 5.28039062 0.05054688 6.1875 0.0625 C5.8575 1.0525 5.5275 2.0425 5.1875 3.0625 C-0.59009884 3.18286664 -6.09209989 2.8945582 -11.8125 2.0625 C-11.8125 1.7325 -11.8125 1.4025 -11.8125 1.0625 C-7.81454108 0.10630267 -4.10446078 -0.0414592 0 0 Z " fill="#27613E" transform="translate(726.8125,884.9375)"/>
<path d="M0 0 C0.66 0.33 1.32 0.66 2 1 C0.68 3.31 -0.64 5.62 -2 8 C-1.34 8.33 -0.68 8.66 0 9 C-0.165 9.928125 -0.33 10.85625 -0.5 11.8125 C-1.07748388 14.95621353 -1.07748388 14.95621353 -1 18 C-1.66 18 -2.32 18 -3 18 C-4.7610915 7.41430867 -4.7610915 7.41430867 -2.0625 2.8125 C-1.381875 1.884375 -0.70125 0.95625 0 0 Z " fill="#1A532D" transform="translate(404,705)"/>
<path d="M0 0 C1.3805087 3.76668598 0.59568159 6.44789173 -0.4375 10.25 C-0.72496094 11.32765625 -1.01242188 12.4053125 -1.30859375 13.515625 C-1.53675781 14.33546875 -1.76492187 15.1553125 -2 16 C-2.33 16 -2.66 16 -3 16 C-3.32712342 9.86946489 -3.39366878 5.37330889 0 0 Z " fill="#174D26" transform="translate(226,690)"/>
<path d="M0 0 C3.96 0 7.92 0 12 0 C12 0.66 12 1.32 12 2 C9.59454362 3.20272819 8.05003047 3.10071472 5.375 3.0625 C4.14910156 3.04896484 4.14910156 3.04896484 2.8984375 3.03515625 C1.95871094 3.01775391 1.95871094 3.01775391 1 3 C0.67 2.01 0.34 1.02 0 0 Z " fill="#1A5631" transform="translate(665,745)"/>
<path d="M0 0 C0.99 0 1.98 0 3 0 C2.85786703 1.89611434 2.71113093 3.79188394 2.5625 5.6875 C2.48128906 6.74324219 2.40007812 7.79898438 2.31640625 8.88671875 C2.03548319 11.65086297 1.59843148 14.28945741 1 17 C0.67 17 0.34 17 0 17 C0 11.39 0 5.78 0 0 Z " fill="#25643F" transform="translate(352,716)"/>
<path d="M0 0 C0.639375 0.391875 1.27875 0.78375 1.9375 1.1875 C5.91343057 3.54060176 9.95412729 5.76992201 14 8 C10.03412756 9.32195748 7.88917501 8.44181567 4.03125 7.1015625 C2 6 2 6 0.4375 2.8125 C0.293125 1.884375 0.14875 0.95625 0 0 Z " fill="#174A26" transform="translate(310,753)"/>
<path d="M0 0 C0.33 0 0.66 0 1 0 C1.33 4.62 1.66 9.24 2 14 C-1.3 14 -4.6 14 -8 14 C-4 11 -4 11 0 11 C0 7.37 0 3.74 0 0 Z " fill="#EBF1EA" transform="translate(554,688)"/>
<path d="M0 0 C1.65 0 3.3 0 5 0 C2.37144933 2.92061185 -0.72411973 4.86064962 -4 7 C-5.34175973 7.98866506 -6.67896002 8.9838154 -8 10 C-6.50163895 6.88801935 -4.80066242 3.9465385 -3 1 C-2.34 1.33 -1.68 1.66 -1 2 C-0.67 1.34 -0.34 0.68 0 0 Z " fill="#164C24" transform="translate(772,687)"/>
<path d="M0 0 C5.61 0.33 11.22 0.66 17 1 C17 1.33 17 1.66 17 2 C10.95170514 2.89604368 5.1105424 3.11269443 -1 3 C-0.67 2.01 -0.34 1.02 0 0 Z " fill="#409662" transform="translate(286,125)"/>
<path d="M0 0 C5.50808397 0.59015185 10.64878069 1.56663769 16 3 C15.34 3.66 14.68 4.32 14 5 C12.68 5 11.36 5 10 5 C10 4.34 10 3.68 10 3 C9.36191406 2.95101562 8.72382812 2.90203125 8.06640625 2.8515625 C7.24011719 2.77679687 6.41382813 2.70203125 5.5625 2.625 C4.73878906 2.55539062 3.91507813 2.48578125 3.06640625 2.4140625 C2.38449219 2.27742187 1.70257812 2.14078125 1 2 C0.67 1.34 0.34 0.68 0 0 Z " fill="#11471F" transform="translate(778,729)"/>
<path d="M0 0 C2.99793771 5.43376211 1.50339947 9.26828952 0 15 C-2.27477677 11.46145836 -1.99082706 9.29052627 -1.125 5.25 C-0.92132813 4.26515625 -0.71765625 3.2803125 -0.5078125 2.265625 C-0.34023437 1.51796875 -0.17265625 0.7703125 0 0 Z " fill="#318750" transform="translate(132,245)"/>
<path d="M0 0 C0 3.19610552 -0.54671542 4.41717626 -2 7.1875 C-2.37125 7.90292969 -2.7425 8.61835938 -3.125 9.35546875 C-3.558125 10.16951172 -3.558125 10.16951172 -4 11 C-4.66 10.67 -5.32 10.34 -6 10 C-4.79157144 5.56909529 -3.48331435 3.01887244 0 0 Z " fill="#2A854B" transform="translate(148,210)"/>
<path d="M0 0 C1.32 0 2.64 0 4 0 C4 0.99 4 1.98 4 3 C4.99 3.33 5.98 3.66 7 4 C7.33 4.99 7.66 5.98 8 7 C8.66 7.33 9.32 7.66 10 8 C9.67 8.66 9.34 9.32 9 10 C7.68113228 8.90344712 6.37009943 7.79746577 5.0625 6.6875 C4.33160156 6.07261719 3.60070312 5.45773437 2.84765625 4.82421875 C1 3 1 3 0 0 Z " fill="#255231" transform="translate(170,832)"/>
<path d="M0 0 C3.3 0 6.6 0 10 0 C10.33 0.99 10.66 1.98 11 3 C6.83861737 3.08159574 3.0527516 2.98248524 -1 2 C-0.67 1.34 -0.34 0.68 0 0 Z " fill="#1A542E" transform="translate(785,698)"/>
<path d="M0 0 C2.203125 0.9140625 2.203125 0.9140625 4 2 C2.71086513 2.67154933 1.41859796 3.33708859 0.125 4 C-0.59429687 4.37125 -1.31359375 4.7425 -2.0546875 5.125 C-4 6 -4 6 -6 6 C-6 5.01 -6 4.02 -6 3 C-3.25 1.375 -3.25 1.375 0 0 Z M4 0 C6 1 6 1 6 1 Z " fill="#2C8A4F" transform="translate(219,142)"/>
<path d="M0 0 C-2.49505962 2.49505962 -3.67328888 2.35948376 -7.125 2.625 C-8.03507812 2.69976562 -8.94515625 2.77453125 -9.8828125 2.8515625 C-10.93082031 2.92503906 -10.93082031 2.92503906 -12 3 C-10 0 -10 0 -7.6875 -0.75 C-4.87863258 -1.01128999 -2.71992678 -0.69940974 0 0 Z " fill="#328F54" transform="translate(269,129)"/>
<path d="M0 0 C2.625 0.375 2.625 0.375 5 1 C5 1.66 5 2.32 5 3 C6.32 3.33 7.64 3.66 9 4 C7.54207116 4.05399736 6.08357288 4.09279177 4.625 4.125 C3.81289063 4.14820313 3.00078125 4.17140625 2.1640625 4.1953125 C0 4 0 4 -2 2 C-1.34 1.34 -0.68 0.68 0 0 Z " fill="#164A25" transform="translate(267,881)"/>
<path d="M0 0 C-5.91684902 5.05908096 -5.91684902 5.05908096 -10.4375 4.8125 C-11.7059375 4.4103125 -11.7059375 4.4103125 -13 4 C-10.56272708 2.37515139 -8.62713877 1.34310925 -5.9375 0.3125 C-5.24527344 0.04050781 -4.55304687 -0.23148438 -3.83984375 -0.51171875 C-2 -1 -2 -1 0 0 Z " fill="#154823" transform="translate(812,759)"/>
<path d="M0 0 C2.8503026 3.20945602 3.43451699 5.49988548 3.6875 9.75 C3.75324219 10.73484375 3.81898438 11.7196875 3.88671875 12.734375 C3.92410156 13.48203125 3.96148437 14.2296875 4 15 C0.59141414 11.59141414 0.06991606 6.67798535 -0.125 2 C-0.08375 1.34 -0.0425 0.68 0 0 Z " fill="#0E431C" transform="translate(131,753)"/>
<path d="M0 0 C0.99 0.495 0.99 0.495 2 1 C1.01 1.495 1.01 1.495 0 2 C0 1.34 0 0.68 0 0 Z M-1 2 C0.125 5.75 0.125 5.75 -1 8 C-1.66 8 -2.32 8 -3 8 C-3.12375 8.804375 -3.2475 9.60875 -3.375 10.4375 C-3.58125 11.283125 -3.7875 12.12875 -4 13 C-4.99 13.495 -4.99 13.495 -6 14 C-5.54738642 12.56068883 -5.08767021 11.12361001 -4.625 9.6875 C-4.24214844 8.48673828 -4.24214844 8.48673828 -3.8515625 7.26171875 C-3 5 -3 5 -1 2 Z " fill="#E9F0EC" transform="translate(308,698)"/>
<path d="M0 0 C-1.95330868 1.03041513 -3.91281528 2.0490893 -5.875 3.0625 C-6.96554687 3.63097656 -8.05609375 4.19945312 -9.1796875 4.78515625 C-10.11039063 5.18605469 -11.04109375 5.58695313 -12 6 C-12.66 5.67 -13.32 5.34 -14 5 C-9.73940487 0.25247971 -9.73940487 0.25247971 -6.4375 -0.875 C-4.0187716 -0.99903735 -2.31306289 -0.63572553 0 0 Z " fill="#154822" transform="translate(585,687)"/>
<path d="M0 0 C1.8871875 0.0309375 1.8871875 0.0309375 3.8125 0.0625 C4.1425 1.0525 4.4725 2.0425 4.8125 3.0625 C3.18786158 3.11645478 1.56271459 3.15527195 -0.0625 3.1875 C-0.96742188 3.21070313 -1.87234375 3.23390625 -2.8046875 3.2578125 C-5.1875 3.0625 -5.1875 3.0625 -7.1875 1.0625 C-4.43671116 0.14557039 -2.82801087 -0.04636083 0 0 Z " fill="#3C945E" transform="translate(731.1875,124.9375)"/>
<path d="M0 0 C0.66 0.33 1.32 0.66 2 1 C1.34 1.66 0.68 2.32 0 3 C-0.24212873 4.98128508 -0.24212873 4.98128508 -0.125 7.125 C-0.063125 9.043125 -0.063125 9.043125 0 11 C-0.99 10.67 -1.98 10.34 -3 10 C-3.36923077 4.58461538 -3.36923077 4.58461538 -1.5 1.625 C-1.005 1.08875 -0.51 0.5525 0 0 Z " fill="#114720" transform="translate(781,700)"/>
<path d="M0 0 C0 3 0 3 -2.5 5.6875 C-3.325 6.450625 -4.15 7.21375 -5 8 C-5 4 -5 4 -3 1 C-2.01 0.67 -1.02 0.34 0 0 Z " fill="#1C502C" transform="translate(860,824)"/>
<path d="M0 0 C1.27875 -0.061875 2.5575 -0.12375 3.875 -0.1875 C4.95394531 -0.23970703 4.95394531 -0.23970703 6.0546875 -0.29296875 C6.69664062 -0.19628906 7.33859375 -0.09960938 8 0 C8.66 0.99 9.32 1.98 10 3 C6.7 3 3.4 3 0 3 C0 2.01 0 1.02 0 0 Z " fill="#2A6541" transform="translate(589,728)"/>
<path d="M0 0 C0.99 0.33 1.98 0.66 3 1 C1.68 1.33 0.36 1.66 -1 2 C-1.33 3.32 -1.66 4.64 -2 6 C-2.66 6 -3.32 6 -4 6 C-3.67 6.99 -3.34 7.98 -3 9 C-3.66 9 -4.32 9 -5 9 C-5.3125 6.75 -5.3125 6.75 -5 4 C-2.6875 1.625 -2.6875 1.625 0 0 Z " fill="#174A24" transform="translate(587,700)"/>
<path d="M0 0 C0.53625 0.2475 1.0725 0.495 1.625 0.75 C0.7175 1.141875 -0.19 1.53375 -1.125 1.9375 C-4.51618394 3.8287372 -6.16532837 5.6054673 -8.375 8.75 C-8.75 6.5 -8.75 6.5 -8.375 3.75 C-3.59475309 -0.37839506 -3.59475309 -0.37839506 0 0 Z " fill="#358A54" transform="translate(243.375,341.25)"/>
<path d="M0 0 C3.317124 4.422832 3.30466674 5.71910976 3 11 C2.01 10.67 1.02 10.34 0 10 C0 6.7 0 3.4 0 0 Z " fill="#318350" transform="translate(896,287)"/>
<path d="M0 0 C2.04296875 0.4609375 2.04296875 0.4609375 4.1875 1.375 C4.90292969 1.67148438 5.61835937 1.96796875 6.35546875 2.2734375 C7.16951172 2.63308594 7.16951172 2.63308594 8 3 C7.67 3.66 7.34 4.32 7 5 C3.7 4.01 0.4 3.02 -3 2 C-2.01 1.34 -1.02 0.68 0 0 Z " fill="#28874A" transform="translate(796,139)"/>
<path d="M0 0 C0.33 1.32 0.66 2.64 1 4 C1.66 4 2.32 4 3 4 C3.33 5.32 3.66 6.64 4 8 C3.01 8.66 2.02 9.32 1 10 C0.67 6.7 0.34 3.4 0 0 Z " fill="#10471F" transform="translate(129,742)"/>
<path d="M0 0 C0.33 0.66 0.66 1.32 1 2 C0.34 1.67 -0.32 1.34 -1 1 C-0.67 0.67 -0.34 0.34 0 0 Z M-4 2 C-3.01 2.33 -2.02 2.66 -1 3 C-3.97 5.475 -3.97 5.475 -7 8 C-6.42655063 5.13275314 -6.1385485 4.1385485 -4 2 Z " fill="#258446" transform="translate(177,173)"/>
<path d="M0 0 C0 0.99 0 1.98 0 3 C-0.66 3 -1.32 3 -2 3 C-2 3.66 -2 4.32 -2 5 C-3.65 5 -5.3 5 -7 5 C-4.87219421 2.65941363 -2.88437779 1.29299694 0 0 Z " fill="#174925" transform="translate(357,757)"/>
<path d="M0 0 C3.91211733 1.15585285 6.8745041 2.35534962 10 5 C3.47692308 4.50769231 3.47692308 4.50769231 1.0625 1.9375 C0.711875 1.298125 0.36125 0.65875 0 0 Z " fill="#11431E" transform="translate(225,757)"/>
<path d="M0 0 C0.70125 0.144375 1.4025 0.28875 2.125 0.4375 C5.07556141 1.01478375 8.03270151 1.51695141 11 2 C11 2.33 11 2.66 11 3 C7.7 3 4.4 3 1 3 C0.67 2.01 0.34 1.02 0 0 Z " fill="#154722" transform="translate(784,747)"/>
</svg>
